<?xml version="1.0" encoding="UTF-8" standalone="no"?>
<svg id="svg4136" xmlns:rdf="http://www.w3.org/1999/02/22-rdf-syntax-ns#" xmlns="http://www.w3.org/2000/svg" height="1483" viewBox="0 0 3304 1483" width="3304" version="1.1" xmlns:cc="http://creativecommons.org/ns#" xmlns:dc="http://purl.org/dc/elements/1.1/">
<path id="path4146" d="m2170 1481.7c-3.3357-1.759-12.015-7.5886-20-13.433-3.575-2.6167-9.2-6.3972-12.5-8.4011s-8.7-5.5078-12-7.7865-8.475-5.8521-11.5-7.941-16.525-11.215-30-20.28c-25.312-17.028-54.994-37.099-58.5-39.557-1.1-0.7712-5.2335-3.516-9.1855-6.0997-10.704-6.9977-31.857-21.403-39.814-27.114-3.85-2.7631-8.35-5.7602-10-6.6602s-5.25-3.1077-8-4.906c-2.75-1.7982-10.85-7.0198-18-11.604-7.15-4.5837-14.125-9.1701-15.5-10.192-1.375-1.0218-6.55-4.5393-11.5-7.8166s-10.458-6.9592-12.239-8.1819c-13.651-9.3693-33.434-21.723-34.787-21.723-0.9057 0-4.8705 0.8653-8.8105 1.9229s-13.239 2.4675-20.664 3.1331c-15.718 1.4091-15.473 1.3938-45.5 2.8411-12.65 0.6098-23.788 1.2903-24.75 1.5122-0.9625 0.2219-1.75-0.062-1.75-0.6301 0-0.7063-7.3636-0.764-23.25-0.1824-29.721 1.0883-164.3 0.2028-168.01-1.1054-0.6795-0.2391-7.7604-0.6413-15.735-0.8939-24.67-0.7813-55.416-2.7753-57.184-3.7085-0.9263-0.4889-3.5091-0.889-5.7394-0.889-5.8813 0-16.118-4.4269-20.33-8.7912-13.05-13.525-21.044-74.17-12.646-95.934 0.5891-1.5263 1.0772-4.3103 1.0849-6.1866 0.046-11.31 10.095-26.089 17.74-26.089 1.619 0 4.0901-0.4359 5.4915-0.9687 6.1645-2.3438 64.821-4.3022 123.77-4.1324 49.049 0.1412 48.049 0.4929 29.815-10.486-3.575-2.1524-7.625-4.7161-9-5.6972-3.5347-2.522-23.697-15.82-27.62-18.216-3.0383-1.8561-7.324-4.6085-37.702-24.214-6.1477-3.9676-12.528-8.1399-14.178-9.2718-14.636-10.041-23.282-14.998-26.936-15.442-5.6806-0.6906-61.455-3.0407-70.564-2.9733-50.327 0.3726-79.164 0.3549-87-0.054-5.225-0.2724-16.475-0.7382-25-1.0352s-23.15-1.1967-32.5-1.9993c-26.733-2.2948-49.672-3.7055-66.595-4.0954-8.577-0.1977-16.227-0.5614-17-0.8083-0.773-0.247-5.4554-0.7045-10.405-1.0167-12.512-0.7893-19.815-1.7211-21.052-2.6861-0.5783-0.4512-4.2908-1.3553-8.25-2.0091-3.9591-0.6538-7.1984-1.5765-7.1984-2.0503 0-0.4739-1.7915-1.5784-3.9811-2.4545-4.2877-1.7156-11.334-10.691-12.622-16.079-0.3698-1.5466-1.0628-3.311-1.5399-3.9208-6.0736-7.7642-9.6338-39.736-6.8919-61.891 3.545-28.645 11.766-40.162 28.851-40.42 2.9237-0.0441 6.0793-0.4888 7.0125-0.98823 2.2555-1.2071 55.707-4.9363 79.804-5.5676 24.028-0.62954 29.824-4.858 12.589-9.1838-1.3202-0.33135-3.5975-1.7277-5.0607-3.103-3.4-3.12-18.6-13.23-19.9-13.23-0.5606 0-3.6271-2.025-6.8144-4.5s-6.0661-4.5-6.3974-4.5-2.0929-1.3614-3.9146-3.0253c-1.8218-1.6639-5.1846-3.9744-7.4729-5.1343-2.2883-1.16-4.3856-2.3992-4.6606-2.7538-1.4664-1.891-11.39-8.1322-17.5-11.007-3.85-1.8111-9.2896-5.2425-12.088-7.6253s-6.8484-5.1371-9-6.1206c-2.1516-0.98358-5.3902-3.0361-7.1968-4.5611s-3.8543-2.7727-4.5504-2.7727-3.7179-2.1844-6.7152-4.8542-7.2496-5.8277-9.4496-7.0176c-2.2-1.1898-6.025-3.7226-8.5-5.6282-2.475-1.9057-6.3-4.4378-8.5-5.6269-2.2-1.1892-7.825-4.7416-12.5-7.8944s-10.075-6.5244-12-7.4925c-1.925-0.96809-5.075-2.9963-7-4.5072-1.925-1.5108-5.5638-4.0367-8.0861-5.613-6.3277-3.9543-15.9-10.286-25.515-16.877-4.4557-3.0543-9.6307-6.3589-11.5-7.3436-1.8693-0.98474-5.6871-3.2415-8.4839-5.0151-5.2896-3.3542-14.816-6.4338-17.415-5.6297-0.825 0.25527-6.45-0.44426-12.5-1.5545s-14.15-2.436-18-2.946c-3.85-0.51007-14.65-2.0958-24-3.5238s-23.054-3.4815-30.453-4.5633c-7.3989-1.0818-16.174-2.6744-19.5-3.5393-3.3261-0.86482-11.447-2.2413-18.047-3.0588-6.6-0.81755-13.575-2.0712-15.5-2.7858-1.925-0.71468-10.025-2.2823-18-3.4835-18.958-2.8556-41.845-6.7796-50-8.5726-3.575-0.78599-9.875-1.8816-14-2.4346-14.091-1.8893-27.495-4.0066-34.5-5.4497-3.85-0.79314-8.8-1.7167-11-2.0524-2.2-0.33564-9.85-1.7095-17-3.0531s-19.3-3.5885-27-4.9888-17.15-3.1862-21-3.9687c-16.142-3.2808-34.334-6.5096-39-6.9217-2.75-0.2429-6.2668-0.92823-7.8151-1.5229-1.5483-0.59472-4.0233-1.0956-5.5-1.1131s-3.5584-0.6925-4.626-1.5c-1.0676-0.80751-3.7676-1.4707-6-1.4738-2.2324-0.003-5.6339-0.43745-7.5589-0.9653-1.925-0.52784-6.65-1.3691-10.5-1.8694-7.0704-0.9188-21.021-3.8724-43-9.1038-6.6-1.5709-14.025-3.1725-16.5-3.559-2.475-0.38654-8.775-1.7434-14-3.0152-11.984-2.9171-25.556-6.0344-54-12.403-12.375-2.7709-24.075-5.5167-26-6.1019-1.925-0.58516-7.325-1.9083-12-2.9404-13.494-2.9788-21.903-5.0628-30.5-7.5585-4.4-1.2773-12.05-3.2448-17-4.3721s-15.75-3.8662-24-6.0863-17.7-4.725-21-5.5663c-23.192-5.9126-31.48-8.0894-42.5-11.162-6.875-1.917-18.575-5.0179-26-6.891-7.425-1.873-15.975-4.0997-19-4.9482-3.025-0.84852-10.225-2.808-16-4.3545-15.367-4.1152-38.594-11.561-50.819-16.291-40.94-15.86-52.75-20.7-67.2-27.58-5.775-2.7486-13.875-6.5834-18-8.5217-14.573-6.8474-25.567-12.397-31.289-15.793-3.1842-1.8898-9.2592-5.467-13.5-7.9493-18.53-10.85-62.211-46.51-62.211-50.79 0-0.62194-1.2762-2.609-2.836-4.4156s-3.5245-4.6348-4.366-6.2848c-0.84149-1.65-4.0649-7.95-7.1631-14s-5.6335-11.569-5.634-12.264c-0.0005154-0.69496-0.43495-2.045-0.9654-3-3.496-6.3-4.7576-15.64-2.9666-21.97 3.9788-14.07 28.381-46.44 41.777-55.43 2.56-1.72 6.679-5.04 9.154-7.38 6.282-5.9425 21.426-16.092 58-38.871 17.325-10.79 32.4-20.777 33.5-22.194 3.38-4.3519 20.592-21.416 23.374-23.174 1.45-0.91 6.23-4.38 10.63-7.71 17.31-13.12 62.27-38.51 68.18-38.51 0.76206 0 2.3969-0.66263 3.6329-1.4725 11.062-7.2481 59.933-19.454 87.682-21.899 33.92-2.9888 69.671 0.32734 127.5 11.826 15.299 3.0421 28.12 5.2995 37 6.5143 3.85 0.52671 13.075 2.0658 20.5 3.4202s17.1 2.9967 21.5 3.6497c4.4 0.65293 14.525 2.2885 22.5 3.6346 21.218 3.5814 30.305 5.0662 41.5 6.7804 5.5 0.84223 12.025 1.9828 14.5 2.5345 2.475 0.55176 14.175 2.3515 26 3.9994s34.55 5.0206 50.5 7.4948 33.725 5.2099 39.5 6.0792c5.775 0.86929 13.425 2.1835 17 2.9204 3.575 0.73695 11 2.0477 16.5 2.9128 40.468 6.3652 61.776 9.8119 66.5 10.757 3.025 0.60503 10.45 1.6624 16.5 2.3496 6.05 0.68726 14.825 1.9754 19.5 2.8624 4.675 0.88707 12.775 2.2816 18 3.099 5.225 0.81737 13.775 2.1952 19 3.0619 5.225 0.86668 13.55 2.1888 18.5 2.9381 4.95 0.74928 14.175 2.2704 20.5 3.3803 12.996 2.2805 33.529 5.7269 42.5 7.1336 13.98 2.1919 26.694 4.1312 37 5.6432 6.05 0.88766 13.25 1.9771 16 2.421 2.75 0.44389 7.925 1.2592 11.5 1.8117 8.7266 1.3487 23.998 3.8428 38.001 6.206 19.284 3.2546 18.608 3.6933 19.515-12.66 1.9149-34.527 16.216-57.926 39.035-63.87 6.8388-1.7813 11.62-1.9585 13.093-0.48535 1.2437 1.2438 18.058 4.3335 35.154 6.46 6.7637 0.84128 14.189 1.961 16.5 2.4883 3.7419 0.85362 14.931 2.4736 34.702 5.0245 3.575 0.46123 8.975 1.3227 12 1.9145 3.025 0.59173 10.9 1.7962 17.5 2.6765 6.6 0.88037 14.025 1.96 16.5 2.3991 2.475 0.43914 9.5076 1.5076 15.628 2.3744 6.1204 0.86677 12.276 2.0125 13.68 2.5461 3.4541 1.3132 8.3372 0.4836 20.192-3.4307 10.33-3.4109 30.603-9.0259 38.5-10.664 4.3332-0.89868 7.4905-1.7824 31.408-8.7918 5.9995-1.7582 16.054-4.5054 22.344-6.1049 6.2899-1.5995 15.781-4.2259 21.092-5.8366 5.3106-1.6106 11.231-3.2294 13.156-3.5974 1.925-0.36794 8.675-2.1915 15-4.0524 14.822-4.3609 41.264-11.247 51.5-13.413 4.4-0.93077 10.925-2.6359 14.5-3.7891 10.9-3.52 37.5-11.24 38.8-11.24 0.6359 0 3.0844-0.61644 5.4412-1.3699 2.3567-0.75343 9.6849-2.8326 16.285-4.6204 20.707-5.609 22.044-6.2341 21.741-10.16-0.8204-10.621-0.6193-20.075 0.5393-25.35 0.7248-3.3 1.7226-9.2513 2.2173-13.225 0.874-7.0213 5.2504-22.627 6.9355-24.731 0.4596-0.57394 1.1508-2.5172 1.536-4.3184 0.9041-4.227 10.704-16.526 16.036-20.124 10.27-6.9309 16.12-7.3498 42.984-3.0776 10.456 1.6629 22.161 3.5168 26.011 4.1197 3.85 0.60298 8.8 1.5434 11 2.0898 2.2 0.54641 6.25 1.3633 9 1.8152 2.75 0.45197 9.05 1.5359 14 2.4087 4.95 0.87279 14.4 2.2585 21 3.0794 6.6 0.82087 16.95 2.3545 23 3.4081s17.75 2.6954 26 3.6484c8.25 0.95303 17.7 2.0628 21 2.4662 3.3 0.40336 9.3446 1.9003 13.432 3.3267 8.0688 2.8153 10.631 2.6349 19.568-1.3771 2.2-0.98769 6.925-2.5378 10.5-3.4447 3.575-0.90692 8.75-2.2819 11.5-3.0556 2.75-0.77365 10.625-2.8023 17.5-4.5081s14.75-3.7178 17.5-4.4711c2.75-0.75331 6.8-1.8228 9-2.3766 2.2-0.55379 7.15-1.9265 11-3.0505s7.9347-2.0567 9.0772-2.0727c1.1424-0.01601 6.0924-1.3277 11-2.9148 11.05-3.5738 19.994-6.1917 32.923-9.6368 5.5-1.4656 11.575-3.2675 13.5-4.0042 1.925-0.73669 5.3-1.6255 7.5-1.9752 2.2-0.34966 7.6-1.669 12-2.9319s10.25-2.7749 13-3.36c2.75-0.58512 9.725-2.3871 15.5-4.0043 5.775-1.6173 15.675-4.3207 22-6.0076s14.65-4.0091 18.5-5.1604 9.475-2.7701 12.5-3.5975c3.025-0.82732 7.525-2.1358 10-2.9077 2.475-0.77193 8.1-2.3321 12.5-3.4671s11.15-2.9615 15-4.0589 9.025-2.4468 11.5-2.9987c4.0255-0.89766 12.108-3.2719 26.229-7.7051 7.4212-2.3298 15.552-2.69 22.271-0.98676 3.3 0.83659 8.925 1.8015 12.5 2.1442 5.8655 0.56234 13.257 1.3965 40 4.5141 4.675 0.545 11.875 1.2571 16 1.5825 4.125 0.32537 10.65 1.2009 14.5 1.9456 3.85 0.74473 13.75 2.0881 22 2.9853 35.23 3.8313 53.579 7.2174 58.014 10.706 4.4782 3.5226 2.0336 13.81-3.2817 13.81-1.8403 0-18.322 6.9884-20.232 8.5787-0.825 0.68679-4.5145 2.4512-8.1988 3.9208-3.6843 1.4697-7.2269 3.3085-7.8724 4.0863-0.7 0.784-1.7 1.42-2.2 1.42-1.5116 0-18.13 7.9718-42.336 20.308-1.65 0.84093-9.075 4.49-16.5 8.1091s-15.525 7.71-18 9.091-11.925 6.0463-21 10.367c-9.075 4.3211-23.925 11.452-33 15.846-16.57 8.0237-19.273 9.2868-28.5 13.318-2.75 1.2014-9.05 4.1108-14 6.4654-9.549 4.5421-22.167 10.486-34.5 16.252-4.125 1.9285-11.661 5.4721-16.746 7.8747-5.0854 2.4026-9.4814 4.3684-9.7689 4.3684-0.2876 0-5.1268 2.2075-10.754 4.9056-15.4 7.39-31.8 15.09-32.2 15.09-0.1786 0-3.688 1.575-7.7986 3.5s-7.9521 3.5-8.5367 3.5-5.024 2.0028-9.8653 4.4506c-12.342 6.2401-36.473 17.725-44.802 21.323-3.85 1.6631-16.45 7.3943-28 12.736s-26.85 12.3-34 15.463c-7.15 3.1631-18.271 8.296-24.712 11.406-6.4418 3.1105-13.122 5.9372-14.844 6.2817-2.1345 0.42689-5.2515 2.8642-9.7876 7.6536-3.6607 3.865-11.831 12.174-18.156 18.465-25.456 25.318-71.112 70.227-79.54 78.239-11.879 11.293-25.46 25.998-25.46 27.566 0 1.3779 2.0067 1.9208 12.5 3.3818 3.85 0.53603 13.075 1.9078 20.5 3.0484s16.2 2.4596 19.5 2.931c3.3 0.47146 8.7 1.3569 12 1.9677 7.7708 1.4383 25.66 4.3728 52.5 8.6123 11.825 1.8678 25.325 4.0845 30 4.9259 4.675 0.84147 13.225 2.2301 19 3.0858 5.775 0.85574 17.025 2.6542 25 3.9966s17.65 2.9236 21.5 3.5138c3.85 0.59026 10.375 1.676 14.5 2.4129 4.125 0.73683 12.225 2.0806 18 2.9861 5.775 0.90551 12.525 2.0606 15 2.5668 2.475 0.50625 6.075 1.1526 8 1.4364 8.8901 1.3104 29.901 4.7807 33.5 5.5329 5.0135 1.048 12.702 2.3324 33 5.5127 8.8 1.3788 18.475 2.9565 21.5 3.5061 9.0409 1.6424 41.703 6.8034 53.5 8.4536 10.964 1.5336 24.956 3.8576 33.5 5.5641 2.475 0.49433 7.65 1.1744 11.5 1.5114 6.6214 0.57947 17.57 2.2942 29.218 4.5759 2.8699 0.56219 8.7199 1.4154 13 1.896 8.3824 0.94129 18.209 2.398 27.782 4.1187 9.3931 1.6883 24.282 3.9044 32.5 4.8374 4.125 0.46831 9.975 1.3178 13 1.8877 3.025 0.56994 9.775 1.7164 15 2.5477 5.225 0.83127 14 2.2346 19.5 3.1184 5.5 0.88386 14.275 2.2887 19.5 3.1218 5.225 0.83312 11.3 1.9147 13.5 2.4035s6.925 1.1708 10.5 1.5154c3.575 0.34468 8.5217 1.0625 10.993 1.5952 2.4711 0.53266 8.7711 1.6152 14 2.4057 5.229 0.79046 13.557 2.1143 18.507 2.942 8.36 1.3978 14.996 2.348 31.5 4.5104 20.61 2.7003 29.986 4.2288 33.928 5.5307 7.5096 2.4802 11.765 0.3208 36.418-18.479 7.6152-5.8073 15.771-11.909 18.124-13.559 2.3533-1.65 5.8724-4.2883 7.8203-5.8629s4.6548-3.5996 6.0154-4.5c17.044-11.28 21.694-14.566 21.694-15.333 0-0.4983 1.4625-1.5174 3.25-2.2646 1.7875-0.74724 4.9123-2.6368 6.944-4.199 9.0495-6.9583 35.019-25.32 46.798-33.089 3.0204-1.9921 7.8112-5.4511 10.646-7.6867 2.8351-2.2356 9.0105-6.7647 13.723-10.065 4.7127-3.3 12.747-9.0776 17.854-12.839 5.1069-3.7615 12.21-8.8447 15.785-11.296 3.575-2.4514 9.65-6.7107 13.5-9.4651s10.15-7.1565 14-9.7824c13.427-9.1578 31.186-21.54 40.327-28.117 2.6753-1.925 8.4213-5.9272 12.769-8.8939 8.744-5.9666 11.76-8.1872 17.05-12.555 4.2849-3.5377 14.144-10.433 20.354-14.235 2.475-1.5152 6.975-4.6799 10-7.0325 8.3969-6.5305 11.758-8.9335 21.127-15.103 8.7339-5.7513 23.481-15.808 29.232-19.934 1.7274-1.2395 4.8555-3.3998 6.9512-4.8007s8.8457-6.2474 15-10.77c10.412-7.6515 13.421-9.7915 19.231-13.676 1.234-0.825 4.3169-2.9625 6.8509-4.75 2.5341-1.7875 6.7449-4.6705 9.3574-6.4066 2.6125-1.7362 6.1-4.353 7.75-5.8151 1.65-1.4622 3.9642-3.3042 5.1427-4.0934 4.9492-3.3142 19.257-13.332 24.357-17.053 5.2202-3.8091 10.158-7.2358 21.5-14.922 2.75-1.8634 5.5946-3.9668 6.3214-4.6742 0.7268-0.70736 1.9298-1.2861 2.6734-1.2861s3.3766-1.5454 5.8511-3.4342c8.6297-6.5872 19.72-8.6518 26.801-4.9896 1.6025 0.82865 7.6421 1.9221 13.421 2.4298 5.7793 0.50776 10.861 1.1417 11.293 1.4087 0.7792 0.48156 6.9176 1.4036 27.138 4.0763 5.775 0.76334 13.425 1.8745 17 2.4692 6.938 1.1541 18.74 3.0892 33.75 5.5334 5.0878 0.8285 11.028 1.5064 13.201 1.5064 2.1729 0 6.5422 0.675 9.7096 1.5s7.9288 1.5 10.581 1.5c2.6521 0 6.4375 0.675 8.412 1.5 2.4733 1.0334 7.1092 1.5 14.903 1.5 6.2221 0 12.557 0.47303 14.078 1.0512 1.5207 0.57815 6.6125 1.4637 11.315 1.9678 17.72 1.8997 28.647 3.7459 31.55 5.3308 1.65 0.90083 4.2671 1.6406 5.8157 1.644 6.8817 0.0151 8.0604 2.5457 3.2841 7.0508-1.8701 1.7639-3.6661 4.5371-3.9912 6.1625-0.5724 2.8616-1.4213 4.1713-8.3586 12.895-1.7875 2.2478-3.25 4.4576-3.25 4.9107 0 0.45305-2.0693 3.223-4.5984 6.1554-4.8126 5.58-12.651 16.419-18.118 25.052-1.7693 2.794-4.0755 6.0248-5.125 7.1797-1.0496 1.1549-2.4823 3.2248-3.1838 4.5998-0.7016 1.375-3.6828 6.1694-6.625 10.654-2.9422 4.4848-5.3494 8.5688-5.3494 9.0757 0 0.50686-1.1678 2.0125-2.595 3.3459-1.4273 1.3334-3.2882 3.7743-4.1355 5.4243s-2.1612 3.3636-2.9199 3.808c-0.7587 0.44441-2.7126 3.3694-4.3421 6.5s-4.3067 7.492-5.9493 9.692-3.8962 5.657-5.0081 7.6822c-1.1118 2.0252-2.4848 3.9685-3.051 4.3184-0.5662 0.34993-1.7138 2.068-2.5503 3.8178-3.0237 6.3254-4.8004 9.2401-7.5992 12.466-1.5673 1.8066-2.8496 3.8744-2.8496 4.595 0 0.72062-0.938 2.1591-2.0845 3.1966-2.4196 2.1897-10.185 13.11-12.484 17.557-1.9616 3.7934-1.3907 5.4091 2.2325 6.3185 6.6259 1.663 6.972 5.3656 1.4159 15.147-2.1563 3.7959-5.7411 10.411-7.9661 14.7-2.225 4.2888-5.0396 9.1941-6.2547 10.901-1.2152 1.7065-5.7291 10.122-10.031 18.702-4.3019 8.5797-9.1501 17.849-10.774 20.599-1.6237 2.75-3.7391 6.788-4.701 8.9733-0.9618 2.1853-2.8539 6.0103-4.2046 8.5-1.3506 2.4897-3.1252 5.8767-3.9435 7.5267-0.8182 1.65-2.9369 5.475-4.7082 8.5s-5.6831 10.225-8.6929 16c-6.7848 13.018-18.872 35.344-23.821 44-2.0441 3.575-5.4639 9.5975-7.5996 13.383-2.1356 3.7858-4.8739 8.5108-6.0852 10.5s-2.4699 4.2917-2.797 5.1167c-1.4525 3.6634-5.9937 12.372-11.993 23-3.5705 6.325-6.1579 11.573-5.7498 11.663 0.4081 0.0894 1.9695 0.43296 3.4698 0.76349 4.7361 1.0434 15.532 12.141 19.473 20.019 1.9417 3.8805 4.0355 7.6808 4.6528 8.445 4.9948 6.1827 8.1477 33.742 4.6461 40.61-1.1 2.1576-2 4.5117-2 5.2314 0 9.3153-18.596 31.814-33.496 40.525-6.5117 3.8071-15.419 7.5365-21.149 8.8548-7.8345 1.8026-11.564-1.8973-6.5169-6.465 1.9091-1.7277 18.736-7.8044 20.6-7.4393 2.554 0.50019 6.3087-1.3576 7.3463-3.6348 0.6205-1.3617 2.5637-3.2183 4.3183-4.1256 13.398-6.9282 26.499-34.657 23.94-50.671-1.8915-11.841-8.3886-26.719-12.863-29.455-1.0609-0.64887-2.2417-2.4489-2.624-4-0.8185-3.3203-6.0567-9.124-9.4178-10.435-1.8805-0.7332-2.2762-1.4979-1.9446-3.7573 0.3473-2.3668-0.048-3.0121-2.3868-3.8948-5.221-1.9707-4.5205-8.6741 1.926-18.432 1.9265-2.9161 5.0523-8.2269 6.946-11.802 1.8938-3.575 4.7506-8.3 6.3486-10.5 1.5979-2.2 2.9202-4.6505 2.9385-5.4456 0.04-1.74 12.3-24.243 15.656-28.738 1.3075-1.7508 2.3773-3.5568 2.3773-4.0134 0-0.45654 1.6038-3.2115 3.5639-6.1222 1.9602-2.9107 4.1799-7.0378 4.9326-9.1713 1.8309-5.1892 24.222-48.238 44.477-85.51 1.7933-3.3 5.534-10.275 8.3126-15.5 2.7787-5.225 6.0472-11.093 7.2633-13.04 1.2162-1.9472 3.7865-6.8972 5.7117-11s4.4541-8.3169 5.6198-9.3646c2.9245-2.6286 2.7101-3.253-1.9293-5.6199-5.0559-2.5793-5.7069-4.1991-3.047-7.5806 1.1526-1.4653 2.0957-3.0718 2.0957-3.5699s0.8331-2.1249 1.8513-3.6151 6.2087-9.2345 11.534-17.21c5.3257-7.975 10.959-16.3 12.519-18.5 4.4372-6.2579 18.37-27.506 20.659-31.504 2.5556-4.4654 13.462-20.314 14.448-20.996 1.7929-1.2392 17.087-26.032 16.572-26.865-0.7407-1.1983-7.2817-2.6293-21.084-4.6122-6.05-0.86923-13.925-2.0592-17.5-2.6444-3.575-0.58516-8.975-1.4194-12-1.8538-3.025-0.43442-6.711-1.3529-8.1911-2.041-3.74-1.7388-10.043 1.4662-14.192 7.2169-3.1701 4.3937-4.6315 6.09-12.617 14.645-4.1302 4.4249-7.9245 8.9196-19.124 22.654-7.5058 9.2049-8.1631 9.9785-12.779 15.041-2.5282 2.7724-6.8467 7.8936-9.5967 11.38-2.75 3.4869-7.8902 9.5436-11.423 13.459-3.5325 3.9158-8.9423 10.27-12.022 14.12-3.0794 3.85-6.4892 8.0714-7.5772 9.3808-2.9622 3.5651-8.7436 10.57-10.739 13.012-0.9683 1.1851-12.218 14.742-25 30.127s-27.064 32.732-31.739 38.55c-4.675 5.8177-11.15 13.807-14.39 17.754-3.2394 3.9468-6.9074 8.751-8.1511 10.676s-4.7587 6.2-7.8112 9.5c-9.0252 9.7572-9.5863 11.34-5.5107 15.541 1.8495 1.9064 6.7378 7.877 10.863 13.268 23.214 30.338 16.216 26.55 65 35.18 19.559 3.4597 23.5 4.7194 23.5 7.5119 0 3.4431-6.3939 3.757-22.143 1.087-6.5213-1.1056-14.782-2.5064-18.357-3.1131-3.575-0.60665-8.75-1.7272-11.5-2.49-2.75-0.76287-7.475-1.695-10.5-2.0714-9.8917-1.2309-13.112-3.5788-20.454-14.912-2.8503-4.4-8.7922-12.749-13.204-18.553-4.412-5.8041-8.4824-11.376-9.0452-12.382-0.8955-1.6002-1.7586-0.85267-6.91 5.9844-5.5903 7.4198-13.348 17.619-19.846 26.091-1.6277 2.1223-5.2721 6.5587-8.0987 9.8587s-7.9879 9.7966-11.469 14.437c-3.4816 4.6402-8.3872 10.749-10.901 13.575-5.8816 6.6113-7.9336 9.0882-11.588 13.988-1.6407 2.2-3.5682 4.6171-4.2831 5.3714-2.4809 2.6172-0.6646 4.3254 8.2999 7.8062 4.95 1.922 9.4275 3.9058 9.95 4.4085 0.5225 0.50267 1.5718 0.91394 2.3317 0.91394 0.76 0 4.0691 1.575 7.3536 3.5s6.5641 3.5 7.2881 3.5c1.7457 0 16.983 7.9749 17.41 9.1119 0.1834 0.48843 1.1423 0.88806 2.131 0.88806 1.8234 0 12.928 3.8903 18.687 6.5465 1.7332 0.79942 3.6606 1.4535 4.2833 1.4535 0.6226 0 3.4796 1.1989 6.3488 2.6642 2.8693 1.4653 9.9418 4.5724 15.717 6.9047 5.775 2.3323 10.503 4.6209 10.506 5.0858 0 0.46492 1.0595 2.5442 2.3473 4.6207 2.4927 4.0194 2.3033 6.414-0.5804 7.338-0.975 0.3124-2.8521 1.089-4.1714 1.7259-4.1605 2.0083-20.568 1.2871-38.101-1.6748-9.075-1.533-17.985-2.9978-19.801-3.255-1.8154-0.25725-9.0154-1.3823-16-2.5002-6.9847-1.1178-16.524-2.4809-21.199-3.029-4.675-0.54807-11.126-1.6676-14.335-2.4879-3.2094-0.82026-10.271-1.8767-15.693-2.3476-5.4217-0.47094-10.368-1.1716-10.992-1.557-1.5327-0.94727-8.7257-1.9651-38.48-5.4452-5.5-0.64327-12.154-1.8577-14.787-2.6988-2.6329-0.84107-5.4715-1.2666-6.3078-0.9457-0.8364 0.32095-3.297-0.32266-5.468-1.4302-3.3678-1.7181-5.0844-1.9193-11.692-1.3702-5.9045 0.49064-8.6288 0.27356-11.465-0.91354-2.0461-0.85641-6.9961-1.8448-11-2.1965-4.0039-0.35166-9.4816-1.5454-12.173-2.6528-2.6911-1.1074-5.965-1.8084-7.2753-1.5579-1.3103 0.25049-4.2835 0.10581-6.6071-0.32151-7.6852-1.4134-12.103-2.0516-23.999-3.4668-6.4759-0.77041-12.326-1.7413-12.999-2.1576-1.4059-0.8689-7.7609-1.7763-26.454-3.7772-13.736-1.4703-21.825-2.5491-38.772-5.1711-5.5-0.85092-15.4-1.7699-22-2.0422-6.6-0.27231-13.125-0.91407-14.5-1.4261-7.4745-2.7835-58.162-9.0855-59.811-7.4363-0.1994 0.19939-2.4609-0.22974-5.0255-0.95363-2.5647-0.72388-5.9139-1.5999-7.4427-1.9468-1.5289-0.34684-3.7475-1.7437-4.9304-3.1041-1.6987-1.9537-3.1111-2.4751-6.7203-2.4812-25.776-0.0431-41.024-17.421-25.907-29.526 3.4111-2.7314 6.3534-5.4415 6.5384-6.0224 0.5189-1.6293-16.232-5.1207-33.201-6.9201-3.3-0.34993-7.35-1.0519-9-1.5599-1.65-0.50799-6.6-1.3657-11-1.906-4.4-0.54028-12.5-1.704-18-2.5861-5.5-0.88207-12.925-1.9653-16.5-2.4071-11.397-1.4086-22.363-3.1182-27-4.2094-4.9855-1.1732-11.325-2.1772-27-4.2761-5.775-0.77328-17.25-2.5406-25.5-3.9274-22.309-3.7501-36.369-5.9222-56.416-8.7158-4.0791-0.56842-10.829-1.6865-15-2.4846-4.1709-0.79812-9.7813-1.4512-12.468-1.4513-2.6862-0.00009-6.5112-0.42055-8.5-0.93436-6.5996-1.705-20.763-4.1069-50.616-8.5836-6.05-0.90725-14.375-2.2531-18.5-2.9908-4.125-0.73769-12.45-2.0777-18.5-2.9777-6.05-0.90005-13.25-2.0339-16-2.5196-2.75-0.48573-7.475-1.1497-10.5-1.4754-3.025-0.32573-8.65-1.2382-12.5-2.0278-8.4463-1.7322-36.288-6.3815-46-7.6815-3.85-0.51535-9.475-1.6559-12.5-2.5346-3.025-0.87868-7.75-1.6713-10.5-1.7615-2.75-0.0901-9.275-0.93145-14.5-1.8696-5.225-0.93818-12.2-2.1059-15.5-2.595-8.4252-1.2486-35.644-6.0709-54.5-9.6555-4.125-0.78418-10.65-1.8453-14.5-2.3581-3.85-0.51278-12.175-1.8459-18.5-2.9624-6.325-1.1166-18.025-3.1664-26-4.5553s-15.805-2.9734-17.399-3.5213c-1.5946-0.54784-4.9696-1.0016-7.5-1.0082-2.5305-0.007-12.701-1.3659-22.601-3.0204s-24.3-3.9095-32-5.011-16.475-2.4504-19.5-2.9975c-3.025-0.54709-11.35-1.9089-18.5-3.0262-14.521-2.2692-31.468-5.0707-45-7.4391-4.95-0.86635-12.825-2.2024-17.5-2.969-4.675-0.76661-13.782-2.3174-20.238-3.4461-6.4561-1.1288-19.731-3.2071-29.5-4.6186-9.7689-1.4114-20.687-3.2482-24.262-4.0816-3.575-0.83347-9.425-1.711-13-1.9501-3.575-0.23906-9.65-1.0828-13.5-1.8749-3.85-0.79212-13.3-2.4017-21-3.5768s-17.825-2.7404-22.5-3.4785c-4.675-0.73805-20.875-3.1764-36-5.4185s-30.875-4.758-35-5.5908c-4.125-0.83283-10.65-1.9255-14.5-2.4281-7.0465-0.91996-27.29-4.2108-37.5-6.096-3.025-0.55856-8.425-1.4432-12-1.966-3.575-0.52271-12.125-1.8757-19-3.0066-21.601-3.5533-31.307-5.1057-37.5-5.9982-3.3-0.47553-8.475-1.3575-11.5-1.9599-6.7105-1.3364-34.252-5.8802-42.5-7.0117-20.342-2.7905-29.585-4.1504-34-5.0023-2.75-0.53066-10.85-1.8745-18-2.9863s-15.475-2.4644-18.5-3.0057c-5.3629-0.95966-24.413-3.8034-40.5-6.0458-10.907-1.5203-38.025-5.6723-49-7.5024-4.95-0.82538-15.075-2.3987-22.5-3.4962s-15.75-2.4454-18.5-2.9953c-10.242-2.0481-20.16-3.2582-25.39-3.0978-3.3431 0.10253-6.0017-0.35664-7-1.209-0.8853-0.75587-5.6596-1.9323-10.61-2.6143-4.95-0.682-12.375-1.8443-16.5-2.5829-4.125-0.73858-12-2.0623-17.5-2.9416s-12.25-2.028-15-2.5528c-2.75-0.52472-8.375-1.4467-12.5-2.0488s-10.875-1.7016-15-2.4434-12.45-2.0884-18.5-2.9926c-6.05-0.90411-14.375-2.2909-18.5-3.0818-7.0092-1.3439-29.411-4.8333-61-9.5017-7.425-1.0973-20.475-3.1278-29-4.5121s-21.125-3.3847-28-4.4452-16.775-2.6098-22-3.4429c-5.225-0.83311-14-2.176-19.5-2.9843-5.5-0.80825-18.1-2.8536-28-4.5452s-28.8-4.8512-42-7.0214-27.375-4.6163-31.5-5.4358c-7.493-1.4887-44.604-7.9247-55-9.5384-6.0185-0.93423-13.607-2.1823-46-7.5657-11.825-1.9652-24.425-3.999-28-4.5196-6.5662-0.95616-40.956-6.4887-46.5-7.4809-8.2736-1.4806-38.744-6.614-44-7.4128-3.3-0.50153-11.85-1.8111-19-2.9101-20.108-3.0909-37.68-5.7479-53-8.0142-7.7-1.1391-18.275-2.7477-23.5-3.5748-5.225-0.82706-14.45-2.1702-20.5-2.9847-6.05-0.81455-15.36-2.1416-20.69-2.9489-40.904-6.1966-121.18 14.282-164.43 41.945-3.1439 2.0111-6.4292 3.9551-7.3007 4.32-0.87147 0.36484-4.2173 2.4603-7.4351 4.6566s-7.3903 4.931-9.2721 6.0773c-1.8818 1.1462-4.6491 3.2147-6.1494 4.5966s-4.9779 4.1861-7.7279 6.2315-8.8189 7.3476-13.486 11.783c-4.6675 4.4349-9.4964 8.5237-10.731 9.0862-1.2344 0.56244-2.4798 1.7418-2.7675 2.6209-0.46633 1.4248-13.033 9.4393-17.771 11.334-1.0116 0.40444-3.2804 1.8155-5.0417 3.1358-1.7614 1.3202-5.1444 3.376-7.5179 4.5684-6.205 3.1172-5.7343 3.8222 5.8154 8.712 3.575 1.5136 7.8925 3.7861 9.5944 5.0502 1.7019 1.264 3.4412 2.2983 3.865 2.2983 0.42383 0 5.4615 2.2626 11.195 5.0281 9.8086 4.7311 30.481 12.786 50.846 19.812 4.95 1.7078 43.2 11.881 85 22.606 41.8 10.726 77.8 19.977 80 20.558 2.2 0.58094 9.175 2.4021 15.5 4.047s12.85 3.3796 14.5 3.855c1.65 0.47533 5.7 1.4171 9 2.0929 3.3 0.67578 8.025 1.815 10.5 2.5317 2.475 0.71666 6.3 1.5781 8.5 1.9142 4.9204 0.75185 17.995 3.8449 30.04 7.107 4.9722 1.3465 9.9782 2.4481 11.124 2.4481 1.1461 0 4.0529 0.70625 6.4596 1.5694 2.4066 0.8632 11.351 3.1608 19.876 5.1058s17.975 4.1001 21 4.789c31.698 7.2192 107.09 22.912 142.5 29.659 15.849 3.0204 19.303 3.6164 45.5 7.8514 7.425 1.2003 36.225 6.0073 64 10.682 27.775 4.6749 51.4 8.5161 52.5 8.5359 1.1 0.0199 5.7295 0.47906 10.288 1.0205 10.376 1.2324 13.212 0.63361 13.212-2.7889 0-8.2072 28.14-17.672 43-14.463 2.475 0.53445 6.975 1.4036 10 1.9315 18.916 3.3009 34.205 13.57 31.813 21.366-1.8035 5.8765 3.3741 8.7993 15.187 8.5734 1.925-0.0368 5.75 0.45219 8.5 1.0867 2.75 0.63446 8.6 1.2908 13 1.4585 4.4 0.16772 15.2 1.3103 24 2.5391s17.575 2.4084 19.5 2.6213c3.5114 0.38839 11.592 1.4434 26.5 3.4602 4.4 0.59522 11.825 1.5151 16.5 2.0441 12.092 1.3685 30.551 3.8426 37 4.9594 3.025 0.52384 12.025 1.6708 20 2.5488 7.975 0.87803 16.3 2.109 18.5 2.7356 2.2 0.62656 5.125 1.2169 6.5 1.3118 8.0424 0.55515 23.939 2.6122 26.5 3.4292 1.65 0.52631 5.925 1.0079 9.5 1.0702s8.75 0.56256 11.5 1.1117c2.75 0.54911 8.15 1.3812 12 1.849 7.0073 0.85156 11.18 1.5132 28 4.4405 13.096 2.2791 29.726 4.3524 48.5 6.0469 23.072 2.0824 31.048 3.1025 34.407 4.4007 1.5988 0.61796 8.3488 1.5446 15 2.0592 6.6511 0.51459 14.343 1.4064 17.093 1.9818 2.75 0.57542 10.625 1.6985 17.5 2.4957 24.465 2.8369 29.582 3.547 36.197 5.0228 3.6836 0.82176 8.5468 1.4941 10.807 1.4941 2.2604 0 5.9965 0.44335 8.3026 0.98523 2.306 0.54187 9.1428 1.4398 15.193 1.9955 18.482 1.6973 35.764 3.7786 40.5 4.8771 7.5967 1.7623 16.682 3.028 37 5.1545 18.388 1.9246 26.011 2.9022 39 5.0022 8.7878 1.4207 19.138 2.7095 40 4.9806 10.725 1.1676 21.75 2.5385 24.5 3.0466 2.75 0.50805 12.2 1.6265 21 2.4854 8.8 0.85892 20.05 2.2016 25 2.9837 8.2199 1.2988 14.575 2.0357 38.049 4.4119 4.4268 0.44811 8.9314 1.0949 10.01 1.4373 1.0789 0.34242 7.807 1.2964 14.951 2.12 7.1444 0.82358 15.915 1.9767 19.49 2.5625 9.2759 1.5199 27.795 3.9775 32.5 4.3131 2.2 0.15689 6.7 0.80377 10 1.4375 3.3 0.63374 9.825 1.5971 14.5 2.1407 4.675 0.54365 12.325 1.4472 17 2.0078 4.675 0.56063 13 1.5015 18.5 2.0907 5.5 0.58928 12.172 1.4981 14.826 2.0196 2.6544 0.52148 6.3376 0.94815 8.1847 0.94815 1.8472 0 7.5504 0.64278 12.674 1.4284 46.081 7.0661 51.572 7.164 50.273 0.89629-0.4358-2.1036-0.6817-4.4997-0.5464-5.3247 0.3773-2.301 8.2783-10 10.262-10 0.9668 0 3.2356-0.63442 5.0418-1.4098 5.276-2.2651 19.325-4.0058 22.538-2.7926 1.5103 0.57029 4.9047 1.2934 7.543 1.607 17.414 2.0695 35.516 17.603 30.794 26.425-0.7185 1.3425-0.7715 2.8819-0.1551 4.5031 1.1146 2.9318 4.3429 3.5817 45.564 9.1727 10.45 1.4174 25.3 3.4872 33 4.5996s19.4 2.6464 26 3.4088c23.194 2.6796 35.56 4.448 37.272 5.3302 0.9506 0.48993 5.5072 0.92789 10.126 0.97323 4.6185 0.0453 12.718 0.75601 18 1.5793 17.806 2.7755 25.566 3.83 34.103 4.6343 4.675 0.44046 12.55 1.2886 17.5 1.8849 4.95 0.59622 15.75 1.7778 24 2.6258 8.25 0.84794 19.725 2.1803 25.5 2.9608s15.9 1.9072 22.5 2.5038c6.6 0.59656 14.25 1.5032 17 2.0147 2.75 0.51153 9.5 1.4081 15 1.9925 9.7221 1.0329 25.644 2.8163 44 4.9285 4.95 0.56958 13.5 1.5179 19 2.1073 5.5 0.58945 12.025 1.483 14.5 1.9857 5.0528 1.0263 28.1 4.0121 35 4.5345 2.475 0.18736 8.1 0.79966 12.5 1.3607 4.4 0.56101 14.075 1.695 21.5 2.52s20.025 2.434 28 3.5756c24.143 3.456 28.121 3.9662 38 4.8736 5.225 0.47992 12.092 1.3977 15.26 2.0396 3.1682 0.64184 6.1678 0.91517 6.6658 0.60739 0.498-0.30777 5.5558 0.11343 11.24 0.93601 21.407 3.098 24.56 3.4833 33.334 4.0724 4.95 0.33234 14.303 1.2605 20.785 2.0627 6.4817 0.80213 12.178 1.2153 12.659 0.91822 0.4807-0.29712 3.5026 0.11363 6.7152 0.91278 3.2127 0.79915 12.17 1.9048 19.906 2.457 7.7357 0.55223 15.221 1.4436 16.634 1.9809 4.9434 1.8794 38.582 2.6155 40.56 0.8875 4.8645-4.2481 10.11-4.3844 48.741-1.2664 29.597 2.389 47.616 3.7592 54.5 4.1445 7.6901 0.43041 39.511 2.9031 56.5 4.3904 6.6 0.57781 21.45 1.4684 33 1.979 22.651 1.0015 44.08 2.3425 65.5 4.0989 7.425 0.60885 19.8 1.5112 27.5 2.0053 30.156 1.9349 30.65 2.0162 32.492 5.3505 0.9041 1.6365 4.5383 4.92 8.076 7.2968 3.5378 2.3768 8.8228 6.5504 11.745 9.2746 2.9217 2.7243 5.7535 4.9532 6.2927 4.9532s3.5032 1.9125 6.5867 4.25c6.0733 4.6041 16.743 12.076 21.708 15.202 1.7053 1.0738 7.514 5.3488 12.908 9.5 8.4232 6.4823 15.454 11.834 27.858 21.204 1.4662 1.1076 4.0164 2.763 5.6671 3.6787 1.6506 0.91572 7.201 4.9186 12.334 8.8952 17.875 13.847 31.165 23.577 41.333 30.26 9.341 6.1391 12.429 8.3051 15.839 11.11 1.7386 1.43 5.8611 4.47 9.1611 6.7557s11.175 7.9599 17.5 12.609c6.325 4.6494 13.75 9.7661 16.5 11.37 2.75 1.6043 7.628 5.4477 10.84 8.5408 3.2119 3.0931 6.1947 5.6239 6.6283 5.6239s3.8806 2.8507 7.6601 6.335c3.7794 3.4842 8.8967 7.7682 11.372 9.5199 5.1639 3.6548 17.167 13.868 26.706 22.723l6.5475 6.0781-1.323 3.9219c-2.8624 8.4853 1.9343 7.6814-61.931 10.379-63.311 2.6739-72.095 1.8609-96.5-8.9307-5.4209-2.3971-19.772-8.096-26-10.325-3.85-1.3778-10.375-3.7164-14.5-5.1968s-13.575-5.3157-21-8.5228-14.85-6.1538-16.5-6.5483c-1.65-0.39442-4.575-1.4858-6.5-2.4252-1.925-0.93944-9.8-3.8557-17.5-6.4806s-22.55-8.3713-33-12.77c-10.45-4.3984-20.35-8.3661-22-8.817-3.6986-1.0107-32.806-12.95-37.2-15.259-1.7602-0.92488-3.7034-1.6816-4.3182-1.6816s-7.4996-2.7462-15.3-6.1026c-7.8001-3.3564-19.582-8.0464-26.182-10.422-24.42-8.79-31.708-11.532-34.52-12.986-1.5844-0.81935-3.607-1.4897-4.4945-1.4897-0.8876 0-4.1724-1.176-7.2997-2.6134-5.8633-2.695-32.071-13.5-49.686-20.485-5.5-2.1809-12.25-4.9021-15-6.0472-2.75-1.145-6.8-2.7179-9-3.4953-2.2-0.77733-4.9-1.8397-6-2.3609-2.9162-1.3816-24.054-9.4542-38.5-14.703-6.875-2.498-14.622-5.6114-17.217-6.9185-2.5942-1.3072-5.4254-2.3766-6.2917-2.3766-0.8662 0-4.3686-1.3005-7.7832-2.8899-7.8462-3.6524-21.116-3.9617-26.129-0.60912-2.5964 1.7361-4.8951 1.9719-20.675 2.121-9.7648 0.0923-18.306 0.50879-18.98 0.92564-1.8427 1.1388-32.614 3.9586-65.423 5.9952-3.85 0.23898-11.5 0.89827-17 1.4651-5.5 0.56682-15.85 1.529-23 2.1381-58.103 4.9501-82.697 7.6219-85.371 9.2742-0.4153 0.25669-9.4936 0.75503-20.174 1.1074-10.68 0.3524-19.691 0.80912-20.024 1.0149-0.333 0.20582-4.1662 0.45225-8.5183 0.54764-4.352 0.0954-8.1378 0.50515-8.4128 0.9106-4.2427 6.2552-493.6 12.501-512.94 12.031-26.654 0.54983-40.658 0.78721-60.359-0.29013-20.321-1.1877-19.027-1.6208-22.439 7.5111-6.9504 18.603-15.184 42.751-15.768 46.248-0.3678 2.2-1.3228 5.4573-2.1222 7.2384-2.1848 4.8678 6.9296 15.172 27.842 31.475 4.4348 3.4574 11.672 9.3607 16.084 13.118 4.4113 3.7576 12.112 10.133 17.112 14.168 5.0002 4.035 13.591 11.032 19.091 15.55 5.5 4.5173 14.275 11.618 19.5 15.778 5.225 4.1608 12.875 10.556 17 14.211 4.125 3.6553 12.364 10.429 18.308 15.053 5.9444 4.6241 12.542 9.7574 14.662 11.407 2.1197 1.65 8.5664 6.825 14.326 11.5 5.7595 4.675 12.829 10.3 15.709 12.5 8.8492 6.7583 17.103 13.583 26.262 21.716 4.8217 4.2814 9.1992 7.7843 9.7279 7.7843s4.5247 3.0375 8.88 6.75c11.348 9.6731 17.853 14.928 33.126 26.761 7.425 5.7525 20.7 16.351 29.5 23.552s22.032 17.895 29.403 23.765c12.945 10.308 28.672 23.12 40.097 32.666 3.025 2.5276 10.675 8.6524 17 13.611 6.325 4.9584 13.75 10.923 16.5 13.254 2.75 2.3315 10.625 8.8141 17.5 14.406 6.875 5.5916 13.625 11.102 15 12.245 2.2545 1.8744 17.397 13.443 24.2 18.488 8.0092 5.9397 17.89 13.924 22.3 18.021 2.75 2.5545 7.925 6.727 11.5 9.2722 3.575 2.5451 9.2255 6.8959 12.557 9.6684 3.3312 2.7725 9.3172 7.5159 13.302 10.541 3.985 3.025 12 9.325 17.811 14 5.8109 4.675 14.043 11.2 18.293 14.5 19.14 14.86 28.45 22.354 59.005 47.5 5.6808 4.675 22.3 18.063 36.931 29.751s28.627 22.961 31.102 25.051 7.2983 5.9299 10.718 8.5333c25.568 19.462 22.413 22.449-28.218 26.72-6.6 0.5568-16.5 1.4496-22 1.9842s-18.775 1.6633-29.5 2.5083c-10.725 0.8449-30.525 2.4357-44 3.535-22.322 1.8211-37.314 2.9412-59.5 4.4453-4.4 0.2984-14.525 1.002-22.5 1.5637-20.193 1.4223-38.374 2.5908-60 3.8564-10.175 0.5954-19.625 1.304-21 1.5746s-3.625-0.1012-5-0.8263zm24.5-14.696c9.9-0.5379 24.975-1.3749 33.5-1.8601s16.625-0.87 18-0.8551c2.9396 0.032 40.675-3.0751 46.5-3.8286 8.5865-1.1107 46.015-3.6478 65.5-4.44 27.004-1.0978 67.789-3.79 76.192-5.0295 3.6803-0.5429 11.232-0.9871 16.781-0.9871 13.797 0 12.905-4.5106-2.9662-15-6.5625-4.3373-20.329-15.121-25.007-19.59-2.475-2.364-6.1728-5.5609-8.2172-7.1043-6.0236-4.5473-27.896-22.332-32.887-26.74-2.5321-2.2366-7.6162-6.5416-11.298-9.5666s-10.385-8.65-14.896-12.5c-4.5112-3.85-13.827-11.472-20.702-16.939-6.875-5.4662-14.525-11.572-17-13.569-2.475-1.9966-8.55-6.7167-13.5-10.489-4.95-3.7725-10.607-8.2415-12.57-9.9313-1.9636-1.6897-6.3916-5.3222-9.84-8.0722s-9.5923-7.7-13.653-11c-9.402-7.6406-17.111-13.5-20.817-15.823-1.5999-1.0029-3.4391-2.3529-4.087-3-0.6479-0.6472-3.3596-2.9767-6.0259-5.1767-2.6662-2.2-6.7194-5.575-9.007-7.5-2.2877-1.925-6.3734-5.1929-9.0794-7.2619-2.7061-2.0691-9.5709-7.4691-15.255-12-5.6843-4.531-12.077-9.5881-14.205-11.238-11.588-8.9825-20.922-16.557-25.881-21-8.7083-7.803-22.891-19.61-30.578-25.458-3.85-2.9283-9.475-7.5044-12.5-10.169-5.9486-5.2402-16.327-13.706-25.587-20.873-3.198-2.475-8.1507-6.525-11.006-9s-7.1258-5.85-9.4901-7.5c-2.3642-1.65-6.8293-5.25-9.9223-8-3.0931-2.75-9.821-8.375-14.951-12.5s-13.201-10.672-17.935-14.549c-4.7345-3.8771-10.77-8.6021-13.413-10.5-2.6426-1.8979-6.2426-4.4881-8-5.756-1.7573-1.268-4.9952-3.9998-7.1952-6.0708-5.4907-5.1686-13.206-11.328-18-14.37-2.2-1.3961-4.9023-3.3742-6.005-4.3959-7.3014-6.7645-21.534-18.028-33.936-26.858-2.3177-1.65-9.5792-7.5862-16.137-13.192-6.5576-5.6054-15.151-12.456-19.097-15.223-3.9458-2.7672-7.4385-5.459-7.7617-5.9819-0.3232-0.52291-2.9448-1.7197-5.8259-2.6595-2.881-0.93983-5.6954-2.067-6.2543-2.5048-0.5588-0.43779-18.109-7.8417-39-16.453-20.891-8.6115-44.059-18.175-51.484-21.251-7.425-3.0768-16.875-6.7825-21-8.2348s-8.85-3.335-10.5-4.1837c-1.65-0.84873-6.6-2.6885-11-4.0883s-21.275-6.848-37.5-12.107-30.82-9.8696-32.433-10.246c-1.6134-0.37611-4.0884-1.2866-5.5-2.0232-1.4117-0.73668-3.5928-1.3422-4.8468-1.3456-1.2541-0.003-4.8541-1.0796-8-2.3915-3.146-1.3119-7.2949-2.6936-9.2199-3.0704-1.925-0.37679-5.525-1.2768-8-2.0001-2.475-0.72324-8.325-2.0983-13-3.0558-4.675-0.95743-14.35-3.0069-21.5-4.5544-14.912-3.2274-42.488-7.87-53.5-9.0071-4.125-0.42595-10.65-1.2746-14.5-1.8858-23.975-3.8063-53.308-5.9615-81.5-5.9881-33.678-0.0318-113.06 2.9085-131.48 4.8701l-6.9762 0.74287-8.6304-5.583c-4.7467-3.0707-9.309-6.033-10.139-6.583-0.8295-0.55-12.998-8.65-27.041-18s-29.066-19.218-33.385-21.928c-4.319-2.7105-8.5277-5.7096-9.3527-6.6647-0.825-0.95507-3.075-2.6058-5-3.6683-11.654-6.4322-15.169-8.6415-16.287-10.238-0.6893-0.98401-3.3306-3.0743-5.8697-4.6451-4.9428-3.0578-52.042-34.68-62.844-42.192-9.6254-6.6947-13.509-11.113-11.085-12.611 2.5384-1.5689 41.103-10.538 56.585-13.161 4.4-0.74528 10.925-2.0378 14.5-2.8722 10.027-2.3404 61.196-9.486 70-9.7753 1.375-0.0452 9.475-0.72162 18-1.5032 15.588-1.4291 21.742-1.7662 47.5-2.6022 20.07-0.65136 61.867 0.99608 85.614 3.3745 19.473 1.9504 25.786 2.8034 51.886 7.0116 6.325 1.0198 13.075 2.0987 15 2.3977 1.925 0.29894 6.2 1.0309 9.5 1.6266 3.3 0.59567 8.9872 1.4456 12.638 1.8887 3.651 0.4431 7.1034 1.0931 7.6718 1.4444 0.8713 0.53846 21.136 4.6286 42.19 8.5154 3.025 0.55845 14.5 2.891 25.5 5.1834s22.925 4.7561 26.5 5.4748c16.99 3.4155 25.915 5.4458 30.5 6.9381 2.75 0.89503 7.475 1.9878 10.5 2.4284 3.025 0.44061 9.1 1.7464 13.5 2.9017s12.639 3.2324 18.309 4.6157c5.6701 1.3833 10.782 2.8072 11.36 3.1642 0.5776 0.357 4.4884 1.4591 8.6906 2.4492 4.2022 0.99007 9.4404 2.2587 11.64 2.8192 2.2 0.56049 9.4 2.1969 16 3.6364 6.6 1.4396 14.25 3.2498 17 4.0226 22.157 6.2271 36.95 9.4362 37.981 8.2388 8.6874-10.096 5.0259-26.504-6.7669-30.322-2.8675-0.92848-6.5637-2.2815-8.2137-3.0066-3.2331-1.4209-113.72-34.456-122-36.478-2.75-0.67141-7.4096-1.6266-10.355-2.1228-2.945-0.49611-6.995-1.6231-9-2.5044s-5.8954-1.9782-8.6454-2.4375c-2.75-0.45932-8.15-1.755-12-2.8793s-13.75-3.4034-22-5.0647c-18.703-3.7661-31.204-6.6786-53.395-12.44-9.5671-2.4837-18.985-4.5159-20.929-4.5159-1.9439 0-4.9164-0.42532-6.6054-0.94515-8.7013-2.678-15.044-4.1002-24.571-5.509-10.769-1.5926-20.938-3.3323-38.5-6.5866-12.937-2.3973-34.484-5.2387-41.5-5.4724-3.025-0.1008-8.425-0.68243-12-1.2925-3.575-0.61008-10.325-1.3362-15-1.6136-4.675-0.27739-10.525-0.72717-13-0.99951-32.017-3.5231-108.6-5.3662-145.5-3.5018-7.7 0.38901-20.525 0.97841-28.5 1.3098-7.975 0.33137-18.325 1.0647-23 1.6296-4.675 0.56491-11.425 1.2951-15 1.6227-3.575 0.32755-29.675 5.5358-58 11.574-28.325 6.0381-54.526 11.331-58.224 11.763-21.808 2.5443-22.687 16.852-1.7761 28.924 8.404 4.8515 18.971 11.73 21.359 13.902 3.5639 3.2432 10.478 7.1958 12.586 7.1958 1.0916 0 2.4263 0.82507 2.966 1.8335s4.493 4.1532 8.7852 6.9885c4.2921 2.8352 9.1539 6.078 10.804 7.2061 29.509 20.176 40.036 27.087 52.71 34.604 6.2097 3.6832 12.64 7.8894 14.29 9.3471s7.05 5.2369 12 8.3983c19.723 12.596 38.306 24.774 44 28.833 3.3 2.3527 7.1252 4.7738 8.5004 5.3803 1.3752 0.60651 3.1178 1.8467 3.8724 2.756 0.7547 0.90928 1.9222 1.6532 2.5947 1.6532 0.6724 0 2.0518 0.91633 3.0653 2.0363 1.0136 1.12 3.8958 2.944 6.405 4.0534s13.706 8.1806 24.88 15.714c11.175 7.5331 22.81 15.159 25.855 16.946 3.045 1.7869 7.1768 4.4869 9.1817 6 3.801 2.8686 6.2754 4.389 12.145 7.4628 1.925 1.008 6.2 3.8288 9.5 6.2685 3.3 2.4396 9.0856 6.3671 12.857 8.7278 3.7713 2.3606 8.5597 5.417 10.641 6.792 2.0812 1.375 5.9706 3.8224 8.6431 5.4387 2.6724 1.6163 6.1312 3.9789 7.6861 5.2503s4.0299 2.6077 5.5 2.9696c1.4701 0.36187 4.5192 2.1617 6.7759 3.9997 2.2566 1.838 4.6813 3.3418 5.3882 3.3418 0.7068 0 3.1672 1.6875 5.4674 3.75 4.0018 3.5882 5.4671 4.5795 15.15 10.25 2.348 1.375 7.5591 4.826 11.58 7.6689 11.45 8.0953 12.701 8.9525 23.216 15.909 5.4478 3.604 11.366 7.3109 13.151 8.2376 1.7853 0.92668 5.653 3.2969 8.5949 5.2672 2.942 1.9703 7.7476 5.0779 10.679 6.9057 2.9316 1.8279 7.8478 5.2784 10.925 7.6677 3.077 2.3894 6.0073 4.3443 6.5116 4.3443 0.5044 0 2.1133 0.9196 3.5752 2.0436 4.3213 3.3223 25.32 16.956 26.115 16.956 0.4025 0 2.0392 1.1421 3.6373 2.538 1.598 1.396 5.1555 3.8835 7.9055 5.5278 2.75 1.6444 6.125 3.8112 7.5 4.8151 1.375 1.004 4.975 3.4038 8 5.3328 5.6138 3.5799 12.58 8.1667 21.5 14.156 9.1007 6.1111 24.844 16.16 36 22.979 6.05 3.698 12.125 7.5559 13.5 8.5731 1.375 1.0171 9.925 6.6698 19 12.562 9.075 5.8917 17.625 11.566 19 12.61 1.375 1.0437 4.3 2.8503 6.5 4.0148 2.2 1.1644 4.9 2.9312 6 3.9261s4.7699 3.5317 8.1554 5.6371c3.3855 2.1055 12.075 7.8782 19.31 12.828 7.2349 4.95 14.59 9.8726 16.345 10.939 10.903 6.6276 67.034 42.769 81.475 52.461 9.5068 6.38 20.532 13.421 24.5 15.646 14.742 8.2669 55.318 34.812 58.231 38.094 1.6589 1.8695 5.3414 4.8528 8.1832 6.6295 2.8419 1.7768 18.36 12.038 34.484 22.802s45.517 30.29 65.317 43.391c38.438 25.433 65.287 43.326 123.5 82.302 20.075 13.441 38.105 25.26 40.067 26.264 1.9618 1.0041 4.2118 2.6112 5 3.5713 3.8083 4.6387 13.236 9.4761 17.386 8.9206 2.226-0.298 12.147-0.9818 22.047-1.5196zm-704.23-204.01c7.4788-10.896 8.5815-13.365 10.264-22.99 5.828-33.336-4.27-88-16.256-88-7.5917 0-18.334 21.285-18.169 36 0.015 1.375-0.035 9.475-0.1114 18-0.261 28.978 3.8136 46.245 13.874 58.793 4.2905 5.3515 5.6488 5.1159 10.398-1.8036zm84.232-89.478c94.242-1.0117 110.5-1.5471 110.5-3.6388 0-1.005 1.125-2.5644 2.5-3.4654 1.375-0.9009 2.5-1.9968 2.5-2.4352 0-1.0346-12.516-9.9728-13.964-9.9728-0.6083 0-2.24-0.743-3.626-1.6512-3.1021-2.0326-8.4016-2.2225-80.41-2.8817-29.425-0.2693-54.625-0.539-56-0.5993-30.39-1.3316-41.32 0.9492-37.152 7.7527 1.6442 2.6837 3.7694 6.9045 4.7226 9.3795 3.1795 8.2552 4.6298 9.1486 13.886 8.5544 4.4234-0.2839 30.092-0.7529 57.042-1.0422zm-388.21-150.27c14.781-13.376 13.692-79.507-1.5557-94.489-7.0896-6.966-17.732-2.2193-17.732 7.9088 0 1.247-0.9736 4.6464-2.1635 7.5542-3.0007 7.3328-3.451 50.564-0.5714 54.852 0.9474 1.4107 2.0108 4.7857 2.3633 7.5 0.3525 2.7142 1.2029 5.61 1.8898 6.435 0.6868 0.825 2.1952 3.3828 3.3519 5.6839 3.6821 7.3251 9.3712 9.1226 14.418 4.5554zm2024.7-72.21c13.475-0.56151 31.475-1.2382 40-1.5037 37.323-1.1626 40.184-1.7332 32.499-6.4826-1.9255-1.19-4.063-2.9347-4.75-3.8773-0.6871-0.94253-2.9368-2.7423-4.9993-3.9995s-3.75-2.6094-3.75-3.0049c0-0.39546-2.1033-2.0463-4.674-3.6684-2.5708-1.6222-5.1583-3.4208-5.75-3.997-0.5918-0.57618-5.351-4.2588-10.576-8.1836s-10.632-8.0131-12.017-9.0852c-2.4496-1.8973-10.63-4.7707-27.983-9.8293-4.675-1.3628-8.9275-2.9-9.45-3.4161-0.5225-0.51605-1.7969-0.93828-2.832-0.93828s-5.1076-1.0751-9.05-2.3891-11.668-3.7717-17.168-5.4616c-5.5-1.6898-17.2-5.3172-26-8.0607-8.8-2.7436-34.9-10.657-58-17.586-23.1-6.9285-46.969-14.151-53.042-16.05-6.1-1.91-11.6-3.46-12.2-3.46-0.6184 0-1.2855-0.48364-1.4826-1.0748-0.197-0.59111-7.997-3.0247-17.333-5.4081-9.3363-2.3833-18.325-5.0469-19.975-5.9191-1.65-0.87218-3.7073-1.5886-4.5719-1.5919-1.8181-0.007-10.05-2.5717-14.428-4.495-1.65-0.72483-5.475-1.872-8.5-2.5493-15.315-3.429-111.95-35.074-142.5-46.666-19.593-7.4338-47.018-20.582-59.858-28.698-4.8718-3.0793-9.637-5.5987-10.589-5.5987-2.7998 0-14.98-11.147-15.019-13.745-0.082-5.4941-15.357-8.1216-17.793-3.0606-0.6926 1.4389-2.5718 3.0738-4.176 3.633-6.5225 2.2738-8.0754 10.657-5.1262 27.672 1.8398 10.614 6.0701 14.934 20.061 20.483 3.025 1.1998 8.425 3.465 12 5.0338 8.4502 3.7081 22.934 9.4057 30.433 11.971 3.2629 1.1164 7.3699 2.8779 9.1265 3.9143 1.7567 1.0365 4.5944 2.192 6.306 2.568 1.7116 0.37593 3.3687 1.0989 3.6824 1.6066 0.3138 0.50768 1.2635 0.92306 2.1104 0.92306s2.9578 0.60834 4.691 1.3519c1.7331 0.74353 10.126 4.1016 18.651 7.4623s17.965 7.3029 20.978 8.7603c6.4405 3.1157 20.014 8.4255 21.538 8.4255 0.5838 0 2.801 0.88691 4.9272 1.9709 2.1263 1.084 6.1589 2.7144 8.9615 3.6231s6.4456 2.457 8.0956 3.4406c1.65 0.98364 5.7 2.5563 9 3.4948 3.3 0.93852 8.25 2.7192 11 3.957s9.492 3.7052 14.982 5.4829c5.4903 1.7778 19.215 6.8468 30.5 11.265 11.285 4.4178 24.343 9.5188 29.018 11.336 4.675 1.8168 14.125 5.6196 21 8.4506 20.714 8.5296 36.841 14.867 49.5 19.451 6.6 2.3902 15.825 5.9008 20.5 7.8014 11.127 4.5238 33.353 12.727 34.483 12.727 0.4872 0 2.7153 0.87638 4.9515 1.9475 3.7051 1.7748 14.743 6.2637 23.566 9.5841 1.925 0.72444 6.875 2.7252 11 4.446 4.125 1.7209 12.9 5.0893 19.5 7.4853s15.824 5.9143 20.497 7.8184c5.725 2.3325 9.64 3.3418 12 3.0937 1.9265-0.20255 14.528-0.82769 28.003-1.3892zm-1934.5-3.9863c18.15-0.57833 40.574-1.1523 49.831-1.2755 15.361-0.20446 16.955-0.39357 18.25-2.1652 2.3898-3.269 1.7572-6.4645-1.654-8.3554-1.6903-0.93692-9.4396-5.866-17.221-10.953-7.7812-5.0875-14.836-9.2936-15.677-9.3469-7.149-0.45303-25.956 0.79594-62.529 4.1526-23.65 2.1706-44.912 4.0198-47.25 4.1093-4.7013 0.18012-5.658 2.3893-2.7182 6.2761 0.8075 1.0676 1.4682 2.9179 1.4682 4.1117s1.3268 5.0967 2.9484 8.6731l2.9484 6.5026 19.302-0.33871c10.616-0.18629 34.152-0.81189 52.302-1.3902zm1409.4-196.75c3.8316-2.1745 4.6385-4.4657 2.6445-7.5089-1.2879-1.9656-1.3375-2.8881-0.3029-5.6381 1.5864-4.2172-2.2143-7.7488-9.2466-8.592-2.4841-0.29783-6.9915-1.0157-10.016-1.5952-3.025-0.57954-10.9-1.654-17.5-2.3878-24.66-2.7414-32.162-3.7466-38.206-5.1189-3.413-0.77502-7.7105-1.4091-9.55-1.4091s-3.772-0.41092-4.2945-0.91316c-0.5225-0.50225-7.025-1.0648-14.45-1.25l-13.5-0.33684-1.5021 9c-2.084 12.486-3.7807 13.532-16.805 10.356-7.3209-1.7852-7.3537-1.8492-6.5926-12.9 0.7928-11.511 0.2062-12.232-10.072-12.374l-5.977-0.0823-0.7306 4.5c-0.4019 2.475-1.0026 6.6321-1.335 9.238-0.8797 6.8979-2.4649 8.0641-9.8873 7.2737-13.571-1.4452-14.385-2.4251-12.579-15.145 1.4423-10.161 1.8203-9.6794-7.9549-10.13-9.1762-0.42256-8.8811-0.70343-9.7229 9.2551-0.917 10.848-1.7246 11.556-11.841 10.382-13.812-1.6035-13.767-1.5234-10.927-19.467l0.648-4.0932-8.3114-0.64093c-9.7301-0.75033-9.4819-0.95832-10.44 8.7503-1.0227 10.363-1.2201 10.577-9.755 10.576-4.865-0.001-8.3547-0.57102-10.715-1.75-3.7378-1.8673-3.7273-1.8204-2.4607-10.915 1.1451-8.2228 0.3961-9.6614-5.7782-11.097-11.915-2.7702-12.252-2.5447-13.655 9.1473-1.2741 10.62-1.8398 11.085-11.73 9.6427-13.185-1.9226-12.706-1.3672-11.36-13.178 1.0805-9.4736 0.4803-10.849-4.7354-10.849-1.9102 0-4.7798-0.7718-6.3767-1.7151-4.0534-2.3944-5.5109-0.61814-6.7409 8.2151-0.536 3.85-1.4779 8.2947-2.093 9.8771l-1.1183 2.8771-8.2084-0.71603c-11.7-1.02-13.8-3.53-11.7-13.54 1.4119-6.663 0.4917-9.3741-3.5809-10.55-12.771-3.6882-14.004-3.0086-15.036 8.2849-0.9583 10.495-1.4652 11.279-7.2496 11.206-13.713-0.17338-17.844-2.5105-16.686-9.4404 2.2916-13.712 2.0787-14.042-9.6532-15.007-10.017-0.8233-9.3855-1.3762-10.879 9.5305-1.5224 11.119-1.2557 10.898-12.688 10.509-12.274-0.41818-12.496-0.8694-9.6971-19.743 0.6242-4.209 0.036-4.5338-9.1009-5.0226l-4.9888-0.26688-0.8188 7.4199c-1.3604 12.328-2.6991 14.487-8.4569 13.645-2.6107-0.38216-7.1107-1.0269-9.9998-1.4327-7.3052-1.0262-7.6449-1.5601-6.3405-9.9669 2.0351-13.117 0.2002-15.674-10.739-14.966l-4.6518 0.30111-1.2385 7c-1.8833 10.644-2.1371 11.362-4.5803 12.963-2.9757 1.9497-17.474 0.56334-19.23-1.8389-1.106-1.5125-0.7268-5.6891 1.4356-15.815 1.0613-4.97 0.7708-5.205-8.2679-6.6877-9.446-1.5496-9.2076-1.7487-10.63 8.8789-1.5151 11.322-1.6231 11.408-12.443 9.8947-12.171-1.7026-12.669-2.5943-10.001-17.895 0.7232-4.1472-0.7294-5.0914-8.7685-5.6994-8.5903-0.64968-8.6503-0.60552-9.4186 6.9256-0.6375 6.2491-2.1768 10.727-3.7447 10.894-16.94 1.8008-21.788-1.5488-19.357-13.373 1.7045-8.2888 1.5598-8.5153-5.6985-8.9188-6.7188-0.37357-6.6849-0.42134-8.0387 11.31-1.0173 8.8147-1.4118 9.0685-12.035 7.742-12.006-1.4992-12.168-1.6882-10.783-12.613 1.3508-10.654 1.2395-10.808-8.4072-11.646-8.4228-0.73132-8.1239-1.0081-9.8899 9.1613-1.8015 10.374-2.2294 10.687-12.935 9.4389-11.63-1.3556-11.886-1.6665-10.048-12.197 1.9892-11.395 2.0015-11.384-15.267-13.091-5.8683-0.58002-12.971-1.303-15.783-1.6067-6.1672-0.66586-5.9792-1.0942-6.9409 15.817l-0.6622 11.644 3.8583 0.56414c2.122 0.31027 8.8082 1.0582 14.858 1.662 6.05 0.60382 13.7 1.5138 17 2.0222 3.3 0.50839 12.075 1.635 19.5 2.5035 7.425 0.86852 16.2 2.0528 19.5 2.6318s7.8 1.2054 10 1.392c2.2 0.18656 6.7 0.7896 10 1.3401 3.3 0.55048 10.95 1.4572 17 2.0148 6.05 0.55767 16.4 1.691 23 2.5184 20.937 2.6249 30.768 3.6744 39.33 4.1987 4.5816 0.28053 10.151 1.1524 12.376 1.9374 2.5478 0.89892 8.0473 1.4274 14.855 1.4274 5.9451 0 11.923 0.4236 13.285 0.94134 2.5713 0.97761 20.201 3.3527 36.654 4.938 5.225 0.50345 20.975 2.3267 35 4.0516s31.878 3.7479 39.672 4.4955c7.7947 0.74763 14.633 1.6443 15.197 1.9927 0.5637 0.34835 5.2112 0.85236 10.328 1.12 11.148 0.58316 23.103 2.1265 27.512 3.5515 1.7648 0.57046 5.8148 0.98964 9 0.9315 7.6691-0.13998 22.793 1.3731 38.791 3.8808 7.15 1.1208 16.6 2.289 21 2.596 4.4 0.30699 12.275 0.98568 17.5 1.5082 5.225 0.52251 14.203 1.4144 19.951 1.9819 5.7479 0.56755 13.173 1.4738 16.5 2.0138 3.327 0.54007 8.5801 0.98535 11.674 0.98951 3.0933 0.004 7.5374 0.68255 9.8757 1.5076 2.3383 0.825 7.5347 1.5 11.548 1.5 4.0128 0 12.619 0.84783 19.124 1.8841 6.5055 1.0362 12.728 1.8792 13.828 1.8732 1.8666-0.0101 7.4816 0.61088 30 3.3178 14.141 1.6998 25.604 2.9665 30.5 3.37 2.475 0.20399 11.025 1.1142 19 2.0227 7.975 0.90849 18.815 2.0396 24.088 2.5136 5.2734 0.474 13.148 1.346 17.5 1.9378 4.3516 0.5918 9.487 1.2301 11.412 1.4184 1.925 0.18829 3.801 0.41436 4.169 0.50238 0.3679 0.088 2.0565-0.62746 3.7525-1.59zm-717.4-84.25c0-1.925 0.3396-4.0229 0.7547-4.662 1.1952-1.8405 2.1449-18.973 1.0879-19.626-0.515-0.31827-6.9902-1.3185-14.39-2.2228-7.3992-0.90427-16.828-2.069-20.953-2.5883-23.592-2.9702-21.53-4.0694-23.204 12.371-1.3419 13.18-1.198 13.409 9.2672 14.705 4.0902 0.50649 11.712 1.611 16.937 2.4544 5.225 0.84345 11.525 1.5485 14 1.5668s5.175 0.48109 6 1.0284c3.9245 2.6038 10.5 0.7089 10.5-3.0258zm-65.586-6.8402c0.5417-1.0121 1.2923-6.9824 1.668-13.267 0.8241-13.784 0.9411-13.622-10.729-14.832-8.826-0.91524-242.9-30.983-260.85-33.507-5.775-0.81209-17.025-2.19-25-3.062-8.9794-0.98184-15.642-2.219-17.5-3.2495-2.0954-1.1623-5.8645-1.7336-12.5-1.8949-12.597-0.30608-23.862-1.3436-26.827-2.4708-1.3221-0.50265-5.1645-1.1154-8.5386-1.3616-13.471-0.98295-35.495-3.7501-41.635-5.2312-7.0381-1.6977-14.52-2.9153-25.5-4.15-3.85-0.4329-7.675-1.0896-8.5-1.4593-1.8608-0.83392-17.433-2.7607-25.5-3.1552-3.3-0.16136-9.6-0.80722-14-1.4352-4.4-0.62802-16.55-2.2484-27-3.6008s-20.429-2.8731-22.175-3.3794c-1.7461-0.50626-3.3972-0.69801-3.6691-0.42612s-3.7933 0.002-7.8253-0.59979c-15.338-2.2892-61.838-8.1165-64.523-8.0859-3.9449 0.045-10.618-1.0824-11.808-1.995-0.55-0.42163-4.825-0.80266-9.5-0.84676-10.287-0.097-24.89-1.8741-30.928-3.7639-2.4355-0.76218-6.7105-1.4076-9.5-1.4342-2.7896-0.0266-9.5719-0.74163-15.072-1.5889-5.5-0.84726-11.559-1.5257-13.465-1.5077-1.9056 0.018-6.1806-0.83688-9.5-1.8998-6.6698-2.1357-27.791-5.1781-30.017-4.3238-1.69 0.64853-21.372-1.1939-30.518-2.8568-3.575-0.64999-6.8848-1.0744-7.3552-0.94311-0.4704 0.13128-4.9704-0.47397-10-1.345s-12.97-1.7978-17.645-2.0595c-4.675-0.26168-9.85-0.88565-11.5-1.3866-3.8-1.16-21.8-3.05-29-3.05-2.971 0-5.7105-0.4996-6.0879-1.1102-0.3924-0.63488-2.0656-0.88637-3.9079-0.58739-3.3348 0.54115-14.953-1.335-19.774-3.1931-1.5126-0.58301-6.4626-1.1274-11-1.2097-5.3302-0.0967-9.0935-0.67554-10.634-1.6357-1.7002-1.0597-3.756-1.304-7.1661-0.85168-2.6301 0.34889-7.8571 0.16383-11.616-0.41123-3.73-0.57-14.23-1.94-23.31-3.03-20.39-2.4566-31.865-4.6047-38.938-7.2886-15.53-5.8937-17.027-4.2249-19.075 21.265-1.214 15.113-2.6151 13.856 19.012 17.054 4.125 0.60984 9.75 1.5144 12.5 2.0101 2.75 0.49572 10.85 1.6276 18 2.5154 7.15 0.88774 14.575 2.0054 16.5 2.4837 7.9627 1.9784 20.12 3.8845 21.47 3.3664 0.7963-0.30557 2.9289-0.0689 4.7391 0.52594 1.8101 0.59484 8.0162 1.3164 13.791 1.6036 5.775 0.28713 12.975 0.96353 16 1.5031 3.025 0.53959 11.125 1.6755 18 2.5244 6.875 0.8488 19.475 2.4326 28 3.5194 8.525 1.0869 17.273 1.9704 19.439 1.9632 2.1667-0.007 9.5917 0.84782 16.5 1.8998s18.411 2.6541 25.561 3.5601c7.15 0.90605 15.7 2.118 19 2.6931 3.3 0.57516 6.9 1.0462 8 1.0467 1.1 0.00051 6.05 0.59663 11 1.3247 16.262 2.3919 17.945 2.6091 23.5 3.033 15.924 1.2152 30.054 2.6501 34.5 3.5035 2.75 0.5279 11.975 1.6222 20.5 2.4318 26.621 2.528 34.339 3.42 39.5 4.5651 2.75 0.61013 9.05 1.4862 14 1.9469 8.7636 0.81561 27.299 2.9382 44.5 5.0959 4.675 0.58645 9.4 1.0698 10.5 1.0742 2.9629 0.0117 28.294 3.6715 33.5 4.84 2.475 0.55551 8.325 1.2111 13 1.4569 12.63 0.66402 20.278 1.4885 32.5 3.5033 6.05 0.99736 13.7 2.1086 17 2.4695 3.3 0.36085 11.625 1.3415 18.5 2.1792 6.875 0.83767 17.9 2.1119 24.5 2.8316 10.906 1.1892 36.366 4.2328 68 8.1291 6.6 0.8129 16.382 1.881 21.737 2.3735 5.3555 0.4925 10.151 1.1514 10.658 1.4642 0.8672 0.53592 36.292 4.6373 57.105 6.6115 5.225 0.49561 14.225 1.5865 20 2.4242 5.775 0.83772 15.675 1.9916 22 2.5642 6.325 0.57259 14.2 1.4845 17.5 2.0264 6.0242 0.98926 11.662 1.6405 38.5 4.4469 7.975 0.83394 16.75 1.927 19.5 2.4291 2.75 0.50207 14 1.8625 25 3.0232s23.6 2.54 28 3.0651c9.3777 1.1192 24.71 2.8444 36 4.0509 4.4 0.4702 9.8 1.2686 12 1.7742 7.5892 1.7441 17.306 1.3795 18.414-0.69098zm-41.671-8.6258c-10.378-1.4063-15.596-13.515-8.7667-20.344 1.5106-1.5106 22.023 2.4199 22.38 4.2883 2.2038 11.539-2.8615 17.513-13.614 16.056zm-43.944-4.4365c-8.4707-0.81624-8.6369-1.0829-7.7818-12.488 0.6817-9.0938 0.8289-9.5654 2.8507-9.1392 1.1726 0.24719 6.3085 0.98326 11.413 1.6357 11.045 1.4117 10.648 0.95084 9.1869 10.656-1.6637 11.051-1.1347 10.736-15.669 9.3353zm-49.129-6.5257c-4.0785-0.67475-7.7417-1.8468-8.258-2.6423-1.2775-1.9678 0.4137-18.949 1.8833-18.911 20.02 0.52047 28.505 10.228 18.993 21.732-1.2136 1.4678-2.8055 1.4453-12.619-0.17817zm-41.543-4.6731c-8.9176-1.302-10.164-3.9999-7.7108-16.688 1.1047-5.7133 0.4982-5.5095 12.091-4.0628 12.024 1.5007 12.101 1.5888 10.545 12.184-1.5528 10.576-1.4733 10.531-14.925 8.5667zm-38.7-4.89c-1.375-0.44035-4.3265-0.8455-6.5589-0.90032-7.1663-0.176-7.8111-1.3168-6.5538-11.595 1.3411-10.965 0.7726-10.527 11.613-8.9472 4.95 0.72119 9.8343 1.3409 10.854 1.3771 1.709 0.0607 1.7994 0.71137 1.1558 8.3159-1.0093 11.925-3.0032 14.154-10.51 11.75zm-51.177-5.7092c-4.4771-0.68496-4.9379-2.095-3.7226-11.392 1.4611-11.177 1.2886-11.052 13.174-9.514 12.107 1.5667 11.852 1.2976 10.556 11.115-1.434 10.866-4.1842 12.212-20.008 9.7908zm-36.689-6.4485c-8.6455-1.237-12.136-3.1415-12.128-6.618 0.01-2.8521 1.7294-14.323 2.214-14.736 0.413-0.35242 22.152 2.5506 22.622 3.021 1.899 1.899-2.8735 19.624-5.2147 19.368-0.6202-0.0679-3.9923-0.53332-7.4936-1.0343zm-50.1-6.16c-2.5195-1.2974-3.4527-17.611-1.1405-19.938 0.6708-0.67496 13.896 0.54758 20.016 1.8503 2.7159 0.5781 2.8501 14.62 0.1705 17.849-1.6368 1.9723-15.346 2.1442-19.046 0.23879zm-37-4.0851c-10.819-1.6771-11.88-3.7338-8.9576-17.36l1.0424-4.8604 11.208 1.4111c13.486 1.698 12.194 0.44562 10.745 10.416-1.147 7.8906-3.0339 11.939-5.4426 11.675-0.6022-0.0658-4.47-0.64281-8.595-1.2823zm-39.181-4.7001c-12.107-1.3036-12.402-1.6671-11.314-13.949 0.8906-10.061 0.9058-10.071 12.783-8.5493 12.226 1.5665 12.184 1.5243 10.775 10.744-1.9308 12.635-2.1456 12.842-12.244 11.754zm-43.692-4.9419c-9.285-0.9727-14.013-16.441-7.1356-23.345 1.2287-1.2333 19.185 1.1668 20.817 2.7824 2.9482 2.9187-1.1611 21.764-4.6816 21.47-0.8952-0.0747-4.9452-0.48333-9-0.90811zm-43.437-5.0533c-7.5533-1.7771-8.0302-2.3769-7.3167-9.2029 0.35-3.349 1.597-8.0735 2.7712-10.499l2.1347-4.4098 7.6102 0.68834c12.343 1.1164 12.98 1.9739 11.006 14.829-1.5576 10.144-4.0342 11.458-16.206 8.5943zm-43.366-7.6206c-5.4734-0.6856-6.7815-5.3447-4.7115-16.782 1.0832-5.9851 1.3405-6.0639 13.887-4.2536l9 1.2986-0.3576 8.4775c-0.5304 12.577-1.6506 13.285-17.818 11.26zm-39.8-4.19c-6.7068-1.1064-6.8216-1.3144-6.2509-11.324 0.6951-12.191 1.062-12.51 12.726-11.037 11.881 1.4997 11.416 1.0327 10.614 10.654-1.0599 12.708-2.9927 14.033-17.088 11.707zm-41.435-3.6787c-5.8261-1.8276-6.2389-2.6499-5.4775-10.911 1.0545-11.443 3.9396-14.801 10.776-12.545 1.8329 0.6049 4.6383 1.0052 6.2343 0.88954 6.3417-0.45955 7.7513 1.4926 7.0519 9.7662-1.229 14.539-4.9254 17.085-18.585 12.8zm-40.6-4.58c-7.1245-1.3441-7.9612-2.4554-6.6061-8.774 0.6084-2.8366 1.1061-6.6203 1.1061-8.4082 0-5.589 10.252-7.8991 19.99-4.5044l3.2886 1.1464-0.6322 8.9059c-0.9637 13.577-2.2438 14.446-17.146 11.634zm-40.379-5.8355c-3.9252-0.92666-5.383-2.6812-4.5678-5.4975 0.3184-1.1 0.9053-4.7656 1.3041-8.1459 1.0716-9.0815 1.9014-9.7171 11.607-8.8913 11.973 1.0187 12.955 1.9428 12.106 11.394-1.0901 12.143-5.6593 14.632-20.45 11.14zm-34.811-3.0366c-10.178-1.3591-10.694-1.8925-9.9807-10.324 1.1823-13.987 2.2909-15.132 13.314-13.747 11.414 1.4332 11.73 1.7658 10.898 11.461-1.1639 13.56-1.9447 14.252-14.232 12.611zm-42.8-4.62c-9.3181-1.1628-10.043-2.3252-8.1245-13.03 2.315-12.918 2.5268-13.083 14.386-11.224 10.678 1.6744 10.626 1.608 9.8176 12.31-0.9979 13.219-1.6979 13.739-16.079 11.944zm-40.5-5.4082c-10.626-2.0383-10.287-1.5061-8.5352-13.364 1.7456-11.819 2.2342-12.229 12.99-10.896 11.454 1.4191 11.916 1.8902 11.038 11.258-1.334 14.236-2.7717 15.442-15.493 13.002zm-32.5-4.4201c-0.55-0.18949-3.5758-0.63489-6.7241-0.98977-9.3999-1.0596-10.123-2.1748-8.6384-13.324 1.4725-11.06 2.1127-11.671 11.209-10.701 13.409 1.429 14.297 2.3913 12.594 13.645-1.5394 10.17-3.6547 13.02-8.4404 11.371zm-47.459-6.6363c-10.219-1.6941-11.297-3.6725-8.9488-16.428 1.5192-8.2518 2.0683-8.7179 9.3436-7.9309 14.945 1.6167 15.759 2.3509 14.441 13.017-1.5649 12.66-2.5126 13.384-14.836 11.341zm-36.04-6.24c-10.915-1.636-11.769-3.6599-7.9134-18.758 1.5695-6.1467 11.096-7.3636 20.663-2.6395 4.7388 2.3398 1.4282 23.038-3.6224 22.647-0.89516-0.0692-5.0026-0.63171-9.1276-1.25zm1026 88.877c2.4181-2.9136-5.6621-15.5-9.9521-15.502-0.8509-0.00043-4.4-1.3504-7.8869-3-5.9511-2.8154-7.0781-2.9992-18.384-2.9992-18.736 0-22.166 1.708-21.58 10.746l0.3034 4.6776 19 2.6512c10.45 1.4582 21.925 3.1003 25.5 3.6491 9.5825 1.4711 11.622 1.4362 12.999-0.22279zm932.3-55.75c1.6881-1.7875 9.7871-11.35 17.998-21.25 8.2106-9.9 17.248-20.685 20.082-23.967 5.9412-6.8789 19.865-24.356 27.154-34.083 2.75-3.67 6.8052-8.7603 9.0116-11.312 5.7112-6.6039 11.14-13.436 17.987-22.639 3.2738-4.4 7.5385-9.8577 9.4771-12.128 1.9386-2.2705 5.9997-7.4017 9.0247-11.403 3.025-4.001 6.85-8.9592 8.5-11.018 1.65-2.0592 8.85-11.262 16-20.451s16.825-21.336 21.5-26.993c4.675-5.6574 12.424-15.173 17.219-21.146 4.7957-5.973 12.351-15.36 16.79-20.86 8.1355-10.081 11.144-13.807 27.412-33.953 4.9065-6.076 11.504-13.972 14.662-17.547 3.1575-3.575 8.3681-9.951 11.579-14.169 8.5877-11.281 21.171-26.597 24.981-30.407 5.8038-5.8038 9.4999-5.798 46.858 0.0742 4.95 0.77808 12.15 1.6996 16 2.0478 3.85 0.34822 9.8099 1.277 13.244 2.0639 8.9669 2.0546 10.32 1.4264 16.048-7.4497 2.7189-4.2133 5.9029-8.5178 7.0756-9.5655 1.1726-1.0477 2.1321-2.4435 2.1321-3.1017 0-0.65821 2.285-4.6279 5.0778-8.8215 6.6781-10.028 6.4355-10.965-3.089-11.933-8.8211-0.89695-26.775-3.3045-39.613-5.3118-5.0181-0.78466-10.643-1.4252-12.5-1.4234-1.8568 0.002-7.8761-0.6797-13.376-1.5144-5.5-0.83469-18.325-2.6679-28.5-4.0739-10.175-1.4059-23-3.1904-28.5-3.9655-5.5-0.77508-14.275-1.8856-19.5-2.4678s-10.805-1.4913-12.399-2.0201c-1.5946-0.52885-4.3521-0.96155-6.1279-0.96155s-4.7559-0.63812-6.6225-1.418c-1.8667-0.77993-6.0841-1.442-9.3722-1.4714-3.288-0.0293-7.5532-0.55912-9.4782-1.1773-1.925-0.61821-7.1-1.5284-11.5-2.0226-4.4-0.49425-9.575-1.1586-11.5-1.4764-3.0382-0.50153-4.2324-0.008-9.0509 3.744-3.053 2.377-8.1195 5.8968-11.259 7.8218-3.1393 1.925-8.9664 5.9079-12.949 8.8509s-10.913 7.7819-15.4 10.753c-7.7858 5.1552-18.68 16.08-25.824 25.896-1.6011 2.2-3.16 4.225-3.464 4.5-1.161 1.0499-10.733 12.599-12.109 14.61-0.794 1.1604-3.1232 4.0854-5.176 6.5s-6.4557 7.9903-9.7843 12.39c-3.3286 4.4-7.3866 9.0451-9.0177 10.322-1.6311 1.2774-2.9657 2.7688-2.9657 3.3144 0 0.98899-4.8474 7.0707-12.573 15.774-2.2402 2.5238-5.0699 6.2447-6.2884 8.2687s-3.7731 5.0478-5.677 6.7194c-1.904 1.6717-3.4617 3.3596-3.4617 3.7509 0 1.5179-11.254 15.306-14.536 17.809-1.9051 1.4531-3.4639 3.0955-3.4639 3.6498 0 1.2622-3.8095 6.1643-16.5 21.232-5.5 6.5303-11.089 13.512-12.419 15.516-1.3307 2.0034-5.3807 7.0717-9 11.263-3.6193 4.1912-10.856 13.169-16.081 19.95-5.225 6.7814-11.318 14.377-13.541 16.88-2.2224 2.5024-6.4648 8.1497-9.4275 12.55-5.4847 8.1455-7.6745 10.979-16.532 21.39-2.75 3.2326-7.25 8.7152-10 12.183-2.75 3.4683-6.6875 8.0025-8.75 10.076s-3.75 4.4344-3.75 5.2465c0 1.3977-12.119 16.344-15.929 19.646-3.5283 3.0575-5.4409 8.6496-4.0811 11.932 1.2331 2.9771 1.8558 3.3422 7.7045 4.5175 1.7568 0.35302 5.1318 2.1822 7.5 4.065 2.3682 1.8827 4.9808 3.4302 5.8058 3.439 0.825 0.009 2.85 0.74013 4.5 1.6253 11.554 6.1986 20.58 10.393 24.019 11.163 2.2107 0.49461 5.8107 2.0016 8 3.3489 4.4626 2.7463 17.632 8.8666 19.079 8.8666 0.5166 0 4.5222 1.8 8.9014 4s8.9226 4 10.096 4c1.1737 0 3.2072 0.81969 4.5188 1.8215 1.3117 1.0018 4.9801 2.8572 8.1519 4.1231 3.1719 1.2658 6.011 2.6962 6.3091 3.1785 0.298 0.48232 1.5957 0.87694 2.8836 0.87694s4.7489 1.1206 7.691 2.4902c6.7139 3.1255 6.447 3.145 10.116-0.74023zm-356.3-6.9c0-1.6101 6.9147-11.854 8.0015-11.854 0.4921 0 3.5812-2.2358 6.8647-4.9683 3.2836-2.7326 7.7598-6.2201 9.9472-7.75 2.1873-1.5299 9.3117-7.0981 15.832-12.374 6.5201-5.2757 13.655-10.787 15.855-12.248 2.2-1.4608 7.375-5.3714 11.5-8.6903s9.151-7.1273 11.169-8.4632c2.0179-1.3358 6.3417-4.8087 9.6085-7.7175s8.5025-7.0887 11.635-9.2887c3.1324-2.2 8.4278-6.3625 11.768-9.25 3.3399-2.8875 6.425-5.25 6.8557-5.25 0.7758 0 11.755-8.6981 19.464-15.42 4.5657-3.981 13.452-11.125 17.514-14.08 1.5121-1.1 6.4447-4.925 10.961-8.5 4.5165-3.575 10.2-7.9325 12.631-9.6834 2.4305-1.7509 6.7759-5.1398 9.6565-7.5308 5.5098-4.5736 24.058-18.823 35.517-27.286 3.7237-2.75 11.259-8.6216 16.745-13.048 5.4863-4.4264 11.55-9.1248 13.475-10.441 1.925-1.316 6.5292-4.8944 10.232-7.9519 3.7023-3.0575 10.627-8.7092 15.388-12.559 4.7611-3.85 10.711-8.7432 13.222-10.874 2.5112-2.1306 8.5298-6.7833 13.374-10.339 8.0655-5.9199 12.279-10.287 9.9246-10.287-1.3218 0-29.89 19.372-42.583 28.875-3.8178 2.8585-9.2178 6.55-12 8.2033-2.7821 1.6534-9.1084 5.8979-14.058 9.4322-4.95 3.5344-17.1 11.907-27 18.606-16.437 11.122-33.761 22.957-44 30.059-2.2 1.5259-8.05 5.7295-13 9.3412-4.95 3.6118-12.825 9.1-17.5 12.196-12.525 8.295-33.809 23.1-48.27 33.576-2.8765 2.0838-7.0299 4.9954-9.2299 6.4703s-6.475 4.5364-9.5 6.8032-10.627 7.6162-16.894 11.888c-16.322 11.125-29.767 20.757-37.918 27.163-7.1484 5.6187-49.608 33.454-51.912 34.032-8.1236 2.0389-12.56 7.3183-8.526 10.145 7.4235 5.2007 35.25 12.355 35.25 9.0631zm-1645.8-26.1c0.92857-0.73277 1.8303-3.5258 2.1793-6.75 3.2455-29.984 3.3961-29.389-7.5089-29.658-3.528-0.0868-10.68-0.95614-15.893-1.9318-5.2133-0.97566-14.187-1.8046-19.941-1.8421l-10.463-0.0682-0.69157 4c-4.7558 27.507-3.3355 31.465 11.31 31.515 2.369 0.008 7.0072 0.64379 10.307 1.4126 3.3 0.76879 10.258 1.908 15.463 2.5316 5.2046 0.62357 9.6672 1.3379 9.9167 1.5874 0.87331 0.87331 3.7521 0.44255 5.3221-0.79634zm-66.03-15.76c0.36946-4.1193 0.99867-11.863 1.3982-17.208l0.72652-9.7184-2.7134-1.0316c-1.49-0.57-4.22-1.03-6.07-1.03-1.8472 0-5.5304-0.42553-8.1849-0.94562-2.6545-0.52008-8.4263-1.4237-12.826-2.0081-4.4-0.58439-12.725-1.955-18.5-3.0459s-31.65-5.8346-57.5-10.542c-104.38-19.01-213.79-40.39-232.5-45.45-7.0684-1.9094-14.406-3.3501-23.446-4.6034-2.1702-0.30089-4.6452-0.91722-5.5-1.3696-2.5372-1.3427-22.947-6.2228-23.805-5.6921-0.7684 0.4749-13.909-2.6084-33.237-7.7983-5.22-1.4-10.85-2.55-12.52-2.55-1.6683 0-6.1735-0.93099-10.012-2.0689-3.8381-1.1379-11.028-2.9058-15.978-3.9287s-15.75-3.4848-24-5.4708-18.6-4.4755-23-5.5321-15.2-3.4832-24-5.3924c-70.573-15.311-135.53-35.221-173-53.028-6.05-2.875-13.475-5.8127-16.5-6.5282s-6.2857-1.9878-7.246-2.8273c-2.19-1.92-12.629-6.21-15.116-6.22-2.691 0-17.634 11.27-17.634 13.31 0 0.78 13.54 8.69 14.877 8.69 0.69143 0 2.9518 1.4227 5.023 3.1616 5.9137 4.9649 40.426 22.95 49.6 25.848 2.2 0.69491 6.025 2.276 8.5 3.5136s9.7139 4.0514 16.087 6.2529c6.3726 2.2016 12.448 4.4476 13.5 4.9912 3.1453 1.6246 26.386 9.3052 33.913 11.208 3.85 0.9731 11.5 3.1346 17 4.8035 5.5 1.6688 16.497 4.6808 24.438 6.6934 7.9412 2.0126 15.141 4.0334 16 4.4908 0.85884 0.45732 6.9615 2.0411 13.562 3.5194 6.6 1.4784 12.45 3.0298 13 3.4476 0.96206 0.7309 2.8425 1.2506 16 4.4215 3.3 0.79529 9.375 2.349 13.5 3.4527s8.6787 1.993 10.119 1.9763c1.4407-0.0167 5.4907 0.86639 9 1.9624 3.5094 1.096 9.7556 2.7707 13.881 3.7215 4.125 0.95078 10.2 2.5245 13.5 3.4972 3.3 0.97266 9.6 2.5564 14 3.5194 4.4 0.96299 11.869 2.8368 16.597 4.164 4.7283 1.3272 11.028 2.688 14 3.024 2.9717 0.33599 6.5281 1.1751 7.9031 1.8647 2.4063 1.2068 17.669 4.8779 27 6.4942 2.475 0.42872 5.625 1.2242 7 1.7677 1.375 0.54354 6.775 1.7791 12 2.7458 5.225 0.96664 10.625 2.3189 12.001 3.0051 1.3756 0.68617 5.2006 1.5504 8.5 1.9205 3.2994 0.37011 10.724 1.9568 16.499 3.526 19.004 5.1638 26.428 6.8986 32 7.4773 6.2216 0.64629 13.165 2.0208 20.5 4.0583 2.75 0.76385 6.35 1.6076 8 1.875 4.2758 0.69291 16.802 3.2634 25 5.1302 3.85 0.87672 10.15 2.2048 14 2.9513 16.39 3.178 22.221 4.4584 24.845 5.4561 1.5319 0.58243 4.0995 1.059 5.7058 1.059s4.8395 0.42352 7.1849 0.94115c9.3071 2.0541 26.399 5.0738 28.676 5.0665 1.3267-0.004 4.7017 0.66318 7.5 1.4831 11.132 3.262 17.417 4.6843 24.588 5.5647 4.125 0.50646 12.225 1.8071 18 2.8904 5.775 1.0832 16.118 2.9272 22.984 4.0977 6.8664 1.1704 12.75 2.292 13.074 2.4924 0.59586 0.36826 10.608 1.8315 23.442 3.4258 6.369 0.79121 13.664 1.8839 37 5.5418 11.47 1.7979 10.898 2.1171 11.672-6.5139zm-44.17-7.65c-1.375-0.21094-3.9876-0.62475-5.8058-0.9196-4.8473-0.78607-7.2912-3.5996-6.2574-7.204 0.45555-1.5884 1.1541-5.6954 1.5523-9.1265 0.88244-7.6032 0.71882-7.5361 12.781-5.2436 12.018 2.284 11.279 1.3903 9.8132 11.868-1.6237 11.607-2.2274 12.137-12.083 10.626zm-44.971-5.8962c-7.7669-1.8895-8.0887-2.6303-6.0728-13.98 2.1799-12.273 1.6622-11.908 13.921-9.7936 11.837 2.0421 11.96 2.193 10.106 12.42-2.4738 13.642-4.1612 14.709-17.954 11.354zm-38.53-7.93c-10.575-2.2088-10.067-1.3595-8.5665-14.308 1.0891-9.4001 2.6095-11.242 8.3544-10.119 2.3166 0.45266 6.7779 1.3219 9.914 1.9316 7.0944 1.3793 7.3469 2.0764 4.8659 13.43-2.493 11.408-2.7084 11.542-14.568 9.0653zm-37.437-7.0812c-10.942-1.9957-11.544-2.8781-9.1784-13.459 2.4247-10.846 2.9808-12.136 4.9836-11.553 0.89737 0.26097 5.7941 1.2211 10.882 2.1337l9.25 1.6592v3.2469c0 1.7858-0.41529 4.5515-0.92286 6.1461-0.50758 1.5946-1.2002 4.5722-1.5393 6.6171-0.64041 3.8625-2.8235 6.8608-4.8593 6.674-0.64821-0.0595-4.5251-0.71856-8.6154-1.4646zm-43.523-7.9834c-6.1397-1.3352-9.0684-3.6943-7.9645-6.4151 0.34113-0.84078 0.97405-4.2736 1.4065-7.6285 1.4356-11.137 1.7814-11.342 14.81-8.7557 11.062 2.1957 11.229 2.522 8.3972 16.355-1.8155 8.8685-3.1411 9.3815-16.649 6.4438zm-36.04-8.3c-10.778-2.5452-10.99-2.9808-7.5717-15.502 2.4162-8.8495 1.8766-8.6054 13.958-6.3147l10.386 1.9693-0.60579 7.8557c-1.0878 14.107-2.5666 15.204-16.167 11.992zm-37-7.7232c-2.75-0.76521-6.2054-1.4-7.6786-1.4106-3.2854-0.0237-6.1682-2.689-5.2979-4.8982 0.35122-0.89158 1.289-4.9855 2.084-9.0976 1.8524-9.5815 1.1258-9.2231 13.567-6.6937 12.873 2.6172 12.332 2.1344 10.458 9.3305-0.83672 3.2119-1.772 7.0458-2.0784 8.5198-1.1738 5.6465-3.2148 6.4312-11.054 4.2498zm-45.874-8.9694c-8.813-1.9196-9.082-2.4083-7.3529-13.358 1.7959-11.373 1.0418-10.813 11.785-8.7534 14.502 2.7801 13.961 2.348 12.326 9.8318-3.3988 15.556-3.0136 15.274-16.757 12.28zm-40.13-9.1c-7.5889-1.7903-9.6036-3.9596-8.4492-9.0973 0.46537-2.0711 1.1-5.375 1.4104-7.3419 1.1174-7.0822 1.6698-7.277 13.548-4.7767 5.7701 1.2146 10.643 2.3175 10.828 2.4509 0.18531 0.13343-0.33768 4.1931-1.1622 9.0216-2.0493 12.001-3.3319 12.773-16.175 9.7435zm-35-9.3541c-16.439-4.3094-15.79-3.5246-12.937-15.638 1.9966-8.4784 1.0891-8.1468 14.249-5.206 11.988 2.6789 11.334 2.0067 10.069 10.355-1.6636 10.973-3.4064 12.58-11.381 10.489zm-45.397-9.609c-9.915-2.1688-10-2.3484-7.3018-15.4 1.7154-8.2969 0.94574-7.9878 12.994-5.2176 13.245 3.0452 12.523 2.2148 10.201 11.733-2.6912 11.033-3.6419 11.564-15.893 8.8846zm517.9 54.29c0-7.2096-23.941-16.939-36-14.63-2.475 0.47391-6.525 1.2458-9 1.7153-6.3421 1.2031-9 2.8672-9 5.635 0 4.1251 2.4268 4.9907 16.376 5.8412 7.2183 0.44009 15.824 1.1718 19.124 1.6261 10.083 1.388 18.5 1.3029 18.5-0.18723zm-868.22-35.27c3.599-3.7058 7.5752-10.674 8.7171-15.277 0.36047-1.453 1.5882-3.6413 2.7282-4.8628 2.7398-2.9355 1.8907-26.166-1.2869-35.207-1.064-3.02-1.934-6.7-1.934-8.16 0-1.4642-0.64608-3.1984-1.4357-3.8538-0.78965-0.65535-1.7243-2.5053-2.0769-4.111-0.35267-1.6057-1.063-3.1801-1.5786-3.4988-0.51554-0.31863-1.8401-2.3488-2.9434-4.5115-2.9886-5.8582-16.025 3.979-20.229 15.264-0.41975 1.1269-2.0375 3.6812-3.595 5.6762-5.9327 7.5993-6.6381 13.791-2.6363 23.14 1.8378 4.2937 3.1213 8.0268 2.8524 8.2958-1.501 1.5 17.024 30.69 19.479 30.69 0.25404 0 2.0269-1.6114 3.9397-3.581zm1787-117.67c35.806-35.888 66.79-66.91 68.853-68.939 2.473-2.432 6.3237-4.6253 11.301-6.437 4.1526-1.5114 15.2-6.404 24.55-10.872 9.35-4.4683 19.025-8.9599 21.5-9.9814 4.981-2.0556 16.587-7.4224 43.105-19.933 4.1827-1.9732 7.9383-3.5877 8.3457-3.5877 0.4073 0 1.9756-0.87938 3.4851-1.9542 1.5094-1.0748 5.4038-2.9295 8.6543-4.1216s11.31-4.7849 17.91-7.9841 16.725-7.9337 22.5-10.521c5.775-2.5874 15-6.8465 20.5-9.4646s13.825-6.5479 18.5-8.7328c4.675-2.185 12.924-6.0537 18.331-8.5971 5.4072-2.5434 10.036-4.6244 10.287-4.6244 0.2508 0 7.9028-3.6 17.004-8 9.1016-4.4 16.951-8 17.444-8 0.4924 0 8.8915-3.8681 18.664-8.5959 9.773-4.7277 20.919-10.092 24.769-11.92 12.797-6.0775 43.878-21.203 52.654-25.624 33-16.593 66.3-32.88 67.4-32.88 0.2948 0 8.059-3.7276 17.254-8.2835 9.1947-4.5559 18.968-9.2872 21.718-10.514 2.75-1.2267 7.9201-3.7748 11.489-5.6624 3.569-1.8876 7.2815-3.6392 8.25-3.8924 4.372-1.1433 0.9017-2.4421-8.9891-3.3642-5.9125-0.55122-16.375-1.9312-23.25-3.0665-22.719-3.7519-28.34-4.3933-45.5-5.1918-16.045-0.74664-26.814-1.7962-43-4.1912-3.85-0.56965-11.09-1.3993-16.09-1.8437-4.9995-0.44436-10.85-1.2965-13-1.8936-6.5714-1.8245-13.006-1.2493-26.746 2.391-7.2402 1.9183-15.189 4.0044-17.664 4.6359-2.475 0.63151-8.775 2.3853-14 3.8973s-12.425 3.5118-16 4.444c-8.8924 2.3187-15.003 4.0181-25 6.9534-4.675 1.3726-10.3 2.7773-12.5 3.1217-2.2 0.34439-6.025 1.2222-8.5 1.9506-2.475 0.72844-9.9 2.7595-16.5 4.5136-28.733 7.636-38.603 10.352-48 13.206-5.5 1.6706-12.925 3.7065-16.5 4.5242-19.76 4.5198-34.668 8.3109-48 12.207-5.225 1.5269-13.325 3.7823-18 5.012-23.706 6.2357-29.708 7.9103-32 8.9276-1.375 0.61029-10.15 3.1346-19.5 5.6095s-19.25 5.1676-22 5.9837c-12.893 3.8262-15.424 4.5306-21.5 5.9832-7.9071 1.8905-15.335 3.8972-28.5 7.6991-5.5 1.5884-12.25 3.5278-15 4.3099-19.484 5.541-24.35 6.905-27 7.568-1.65 0.41284-5.7 1.5022-9 2.4207-3.3 0.91853-14.55 3.8904-25 6.604-34.816 9.0412-48.89 12.757-62 16.369-7.15 1.9699-15.7 4.2932-19 5.1628-3.3 0.86963-9.6 2.6567-14 3.9713s-12.012 3.3273-16.916 4.4728c-4.9037 1.1454-11.429 2.8984-14.5 3.8956-12.031 3.9061-20.991 6.4307-52.084 14.676-5.225 1.3856-14 3.7901-19.5 5.3433-5.5 1.5533-18.1 4.9312-28 7.5064s-20.025 5.2845-22.5 6.0206c-2.475 0.73611-9.9 2.7843-16.5 4.5515s-13.8 3.7873-16 4.489c-4.2138 1.344-6.7482 2.0262-20.5 5.5179-15.261 3.8749-27.296 7.1643-39 10.66-15.988 4.7747-19.75 5.8109-34 9.3662-6.875 1.7152-14.525 3.7077-17 4.4276-2.475 0.71995-8.325 2.3156-13 3.546-4.675 1.2303-12.55 3.5589-17.5 5.1747-4.95 1.6157-10.8 3.2936-13 3.7286-4.791 0.94728-16.028 4.0538-27 7.4644-10.524 3.2712-12.824 3.9262-27 7.6872-6.6 1.7511-13.8 3.8209-16 4.5996-2.2 0.77867-10.006 2.9722-17.347 4.8745-7.3408 1.9023-14.303 4.1287-15.472 4.9476-1.1691 0.81886-2.9842 1.4888-4.0336 1.4888s-9.2465 2.5057-18.216 5.5682c-12.378 4.2263-16.753 5.3301-18.154 4.5803-1.8825-1.0075-23.685 3.8591-25.523 5.6969-1.8829 1.8829 2.947 3.0961 28.245 7.095 14.575 2.3039 28.75 4.5915 31.5 5.0836s11.75 1.8464 20 3.0095 20.85 3.0033 28 4.0892c7.15 1.086 20.2 3.0583 29 4.3831 8.8 1.3247 20.725 3.1219 26.5 3.9937 5.775 0.87178 12.75 2.0045 15.5 2.5171 2.75 0.51264 12.875 2.0715 22.5 3.4642s21.55 3.1923 26.5 3.9992c4.95 0.80689 13.275 2.1624 18.5 3.0122 5.225 0.84983 13.1 1.9859 17.5 2.5246 4.4 0.53867 17.225 2.5682 28.5 4.5099 18.333 3.1573 31.68 5.3313 52 8.4696 3.575 0.55215 10.1 1.6892 14.5 2.5267 4.4 0.83753 14.075 2.4127 21.5 3.5004 31.505 4.6152 42.29 6.2746 56 8.6161 7.975 1.362 17.425 2.8588 21 3.3262 12.549 1.6405 35.674 5.0819 53.5 7.9616 9.9 1.5993 22.95 3.6874 29 4.6402 24.16 3.8048 38.792 6.2229 47.5 7.8503 4.125 0.77085 8.8937 1.4422 10.597 1.4918 2.8055 0.0817 9.2281-6.0547 68.199-65.16zm-686.3-35.74c3.85-1.0979 14.626-4.0224 23.946-6.4989 20.374-5.4137 19.508-4.7308 16.826-13.259-2.9827-9.4852-4.4725-17.604-3.7549-20.464 0.4006-1.5961 0.072-2.8853-0.9526-3.7355-1.1-0.84-1.6-2.96-1.6-6.05 0-2.9265-0.5557-5.2163-1.4451-5.9544-0.7947-0.65961-1.9472-3.6181-2.5609-6.5744-0.7285-3.5093-1.7021-5.5514-2.8049-5.8831-23.729-7.1366-43.189 18.951-43.189 57.896 0 13.735 1.2562 14.588 15.5 10.526zm520.5-142.5c3.575-0.8052 10.1-2.5771 14.5-3.9375s13.4-3.8994 20-5.642c6.6-1.7427 14.25-3.7994 17-4.5704 2.75-0.77103 12.2-3.316 21-5.6556 15.335-4.0769 15.994-4.3565 15.861-6.7273-0.3211-5.7223-3.0661-15.032-5.063-17.171-1.1824-1.2666-2.4778-3.623-2.8785-5.2364-0.4007-1.6133-1.3313-4.0883-2.068-5.5-0.7366-1.4117-1.3422-3.105-1.3455-3.7631 0-0.65803-1.5501-3.8306-3.437-7.0502s-3.7274-7.0356-4.0899-8.48c-1.2448-4.9594-2.9446-5.7215-18.979-8.5088-18.442-3.2058-28.596-2.9073-34.699 1.0201-5.597 3.6018-14.801 12.813-14.801 14.812 0 0.65023-1.3168 3.3224-2.9263 5.9381-3.9142 6.3614-8.0722 16.934-8.0799 20.544 0 1.6068-0.7554 4.2715-1.6712 5.9215-1.8176 3.2748-3.0816 22.641-1.8917 28.983 1.2467 6.6455 3.1833 7.3624 13.569 5.0232zm-1411.5 178.04c-7.9805-2.0866-8.9169-6.3848-5.3847-24.717 2.7241-14.139 3.0214-14.414 14.385-13.35 18.425 1.7263 20.666 3.9009 20.536 19.923-0.0496 6.104-0.0337 12.163 0.0355 13.464 0.25411 4.7837-18.079 7.6852-29.572 4.6802zm-27.018-11.758c-19.936-5.6582-24.244-7.3609-30.154-11.921l-5.354-4.1306 4.6962-5.118c14.29-15.57 21.1-21.62 24.37-21.62 5.5065 0 22.222 8.7973 21.616 11.376-0.27443 1.168-1.7044 8.1986-3.1778 15.624-3.3063 16.662-4.3011 17.971-11.995 15.788zm-52.541-23.319c-16.588-8.6323-17.137-14.449-2.5734-27.287 20.454-18.03 18.089-17.589 29.672-5.5308 9.8806 10.286 9.6036 9.2803 4.4001 15.981-11.608 14.949-23.209 21.15-31.499 16.836z"/>
</svg>
