<?xml version="1.0"?>
<svg xmlns="http://www.w3.org/2000/svg" viewBox="0 0 64 64">
    <path d="M 7 8 C 5.346 8 4 9.346 4 11 L 4 53 C 4 54.654 5.346 56 7 56 L 57 56 C 58.654 56 60 54.654 60 53 L 60 11 C 60 9.346 58.654 8 57 8 L 7 8 z M 7 10 L 57 10 C 57.551 10 58 10.449 58 11 L 58 53 C 58 53.551 57.551 54 57 54 L 7 54 C 6.449 54 6 53.551 6 53 L 6 20 L 47 20 C 47.552 20 48 19.552 48 19 C 48 18.448 47.552 18 47 18 L 6 18 L 6 11 C 6 10.449 6.449 10 7 10 z M 10 12 C 9.448 12 9 12.448 9 13 L 9 15 C 9 15.552 9.448 16 10 16 C 10.552 16 11 15.552 11 15 L 11 13 C 11 12.448 10.552 12 10 12 z M 15 12 C 14.448 12 14 12.448 14 13 L 14 15 C 14 15.552 14.448 16 15 16 C 15.552 16 16 15.552 16 15 L 16 13 C 16 12.448 15.552 12 15 12 z M 20 12 C 19.448 12 19 12.448 19 13 L 19 15 C 19 15.552 19.448 16 20 16 C 20.552 16 21 15.552 21 15 L 21 13 C 21 12.448 20.552 12 20 12 z M 25 12 C 24.448 12 24 12.448 24 13 L 24 15 C 24 15.552 24.448 16 25 16 C 25.552 16 26 15.552 26 15 L 26 13 C 26 12.448 25.552 12 25 12 z M 30 12 C 29.448 12 29 12.448 29 13 L 29 15 C 29 15.552 29.448 16 30 16 C 30.552 16 31 15.552 31 15 L 31 13 C 31 12.448 30.552 12 30 12 z M 35 12 C 34.448 12 34 12.448 34 13 L 34 15 C 34 15.552 34.448 16 35 16 C 35.552 16 36 15.552 36 15 L 36 13 C 36 12.448 35.552 12 35 12 z M 40 12 C 39.448 12 39 12.448 39 13 L 39 15 C 39 15.552 39.448 16 40 16 C 40.552 16 41 15.552 41 15 L 41 13 C 41 12.448 40.552 12 40 12 z M 45 12 C 44.448 12 44 12.448 44 13 L 44 15 C 44 15.552 44.448 16 45 16 C 45.552 16 46 15.552 46 15 L 46 13 C 46 12.448 45.552 12 45 12 z M 50 12 C 49.448 12 49 12.448 49 13 L 49 15 C 49 15.552 49.448 16 50 16 C 50.552 16 51 15.552 51 15 L 51 13 C 51 12.448 50.552 12 50 12 z M 55 12 C 54.448 12 54 12.448 54 13 L 54 15 C 54 15.552 54.448 16 55 16 C 55.552 16 56 15.552 56 15 L 56 13 C 56 12.448 55.552 12 55 12 z M 51 18 C 50.448 18 50 18.448 50 19 C 50 19.552 50.448 20 51 20 L 55 20 C 55.552 20 56 19.552 56 19 C 56 18.448 55.552 18 55 18 L 51 18 z M 19 24 C 17.346 24 16 25.346 16 27 C 16 28.654 17.346 30 19 30 L 29 30 C 30.302 30 31.402406 29.161 31.816406 28 L 55 28 C 55.552 28 56 27.552 56 27 C 56 26.448 55.552 26 55 26 L 31.816406 26 C 31.402406 24.839 30.302 24 29 24 L 19 24 z M 9 26 C 8.448 26 8 26.448 8 27 C 8 27.552 8.448 28 9 28 L 13 28 C 13.552 28 14 27.552 14 27 C 14 26.448 13.552 26 13 26 L 9 26 z M 19 26 L 29 26 C 29.551 26 30 26.449 30 27 C 30 27.551 29.551 28 29 28 L 19 28 C 18.449 28 18 27.551 18 27 C 18 26.449 18.449 26 19 26 z M 25 34 C 23.346 34 22 35.346 22 37 C 22 38.654 23.346 40 25 40 L 39 40 C 40.302 40 41.402406 39.161 41.816406 38 L 55 38 C 55.552 38 56 37.552 56 37 C 56 36.448 55.552 36 55 36 L 41.816406 36 C 41.402406 34.839 40.302 34 39 34 L 25 34 z M 9 36 C 8.448 36 8 36.448 8 37 C 8 37.552 8.448 38 9 38 L 19 38 C 19.552 38 20 37.552 20 37 C 20 36.448 19.552 36 19 36 L 9 36 z M 25 36 L 39 36 C 39.551 36 40 36.449 40 37 C 40 37.551 39.551 38 39 38 L 25 38 C 24.449 38 24 37.551 24 37 C 24 36.449 24.449 36 25 36 z M 35 44 C 33.346 44 32 45.346 32 47 C 32 48.654 33.346 50 35 50 L 49 50 C 50.315 50 51.421172 49.143844 51.826172 47.964844 C 51.884172 47.975844 51.938 48 52 48 L 55 48 C 55.552 48 56 47.552 56 47 C 56 46.448 55.552 46 55 46 L 52 46 C 51.939 46 51.884172 46.024156 51.826172 46.035156 C 51.421172 44.856156 50.315 44 49 44 L 35 44 z M 9 46 C 8.448 46 8 46.448 8 47 C 8 47.552 8.448 48 9 48 L 29 48 C 29.552 48 30 47.552 30 47 C 30 46.448 29.552 46 29 46 L 9 46 z M 35 46 L 49 46 C 49.551 46 50 46.449 50 47 C 50 47.551 49.551 48 49 48 L 35 48 C 34.449 48 34 47.551 34 47 C 34 46.449 34.449 46 35 46 z"/>
</svg>
